<svg xmlns="http://www.w3.org/2000/svg" fill="none" viewBox="0 0 537 39">
    <g>
        <path stroke="#181A1B" stroke-linecap="round" stroke-linejoin="round" stroke-width="1.5"
            d="M21.75 14.25v10.5A2.25 2.25 0 0 1 19.5 27h-15a2.25 2.25 0 0 1-2.25-2.25v-10.5m19.5 0A2.25 2.25 0 0 0 19.5 12h-15a2.25 2.25 0 0 0-2.25 2.25m19.5 0v.243a2.25 2.25 0 0 1-1.07 1.916l-7.5 4.615a2.25 2.25 0 0 1-2.36 0l-7.5-4.614a2.25 2.25 0 0 1-1.07-1.916v-.244" />
        <path fill="#181A1B"
            d="M38 37.91c-.977 0-1.879-.133-2.705-.399a5.85 5.85 0 0 1-2.136-1.17 4.73 4.73 0 0 1-1.34-1.932l.681-.273c.265.682.66 1.247 1.182 1.694.53.454 1.163.791 1.898 1.01.742.228 1.549.342 2.42.342 1.818 0 3.235-.481 4.25-1.443 1.015-.955 1.523-2.413 1.523-4.375v-4.728h-.091c-.303.97-.754 1.78-1.352 2.432a5.88 5.88 0 0 1-2.08 1.455 6.553 6.553 0 0 1-2.477.477c-1.364 0-2.55-.367-3.557-1.102-1.008-.735-1.788-1.754-2.341-3.057-.553-1.303-.83-2.81-.83-4.523 0-1.727.273-3.273.819-4.636.545-1.364 1.322-2.44 2.33-3.227 1.007-.788 2.2-1.182 3.579-1.182.94 0 1.795.193 2.568.58a5.853 5.853 0 0 1 2.011 1.636c.569.704 1.012 1.541 1.33 2.511h.09v-4.454h.728v17.818c0 1.431-.261 2.632-.784 3.602a5.116 5.116 0 0 1-2.239 2.204c-.97.493-2.128.74-3.477.74Zm-.227-7.637c1.212 0 2.265-.322 3.159-.966.901-.644 1.598-1.56 2.09-2.75.5-1.197.75-2.61.75-4.239 0-1.576-.242-2.989-.727-4.239-.484-1.257-1.178-2.25-2.08-2.977-.893-.735-1.957-1.102-3.192-1.102s-2.303.367-3.205 1.102c-.894.727-1.583 1.72-2.068 2.977-.485 1.25-.727 2.663-.727 4.24 0 1.575.242 2.961.727 4.158.492 1.19 1.186 2.122 2.08 2.796.901.666 1.965 1 3.193 1ZM50.869 31V13.546h.728V31h-.728Zm.364-20.636a.699.699 0 0 1-.511-.216.699.699 0 0 1-.216-.512.7.7 0 0 1 .216-.511.699.699 0 0 1 .511-.216c.197 0 .367.072.511.216a.699.699 0 0 1 .216.511.699.699 0 0 1-.216.512.699.699 0 0 1-.511.216Zm12.094 3.181v.728h-6.91v-.727h6.91Zm-4.364-4.181h.727v17.954c0 .682.152 1.27.455 1.761.303.485.704.86 1.204 1.125a3.473 3.473 0 0 0 2.216.33 3.56 3.56 0 0 0 .58-.17l.227.681c-.227.084-.45.148-.67.194a3.15 3.15 0 0 1-.739.08 4.176 4.176 0 0 1-1.989-.49 3.841 3.841 0 0 1-1.465-1.386c-.364-.598-.546-1.307-.546-2.125V9.364ZM70.1 19.273V31h-.727V7.727h.727v8.591h.091c.41-.909 1.08-1.636 2.012-2.182.94-.545 2.011-.818 3.216-.818 1.166 0 2.197.254 3.09.761a5.495 5.495 0 0 1 2.103 2.103c.507.894.761 1.924.761 3.09V31h-.727V19.273c0-1.546-.485-2.803-1.455-3.773-.97-.97-2.227-1.454-3.772-1.454-1.03 0-1.947.223-2.75.67a4.977 4.977 0 0 0-1.887 1.852c-.454.788-.682 1.69-.682 2.705Zm28.733 6V13.546h.728V31h-.728v-2.773h-.09c-.41.91-1.084 1.637-2.023 2.182-.932.546-2 .818-3.205.818-1.166 0-2.197-.253-3.09-.761a5.495 5.495 0 0 1-2.103-2.102c-.508-.894-.761-1.925-.761-3.091V13.546h.727v11.727c0 1.545.485 2.803 1.454 3.773.97.97 2.228 1.454 3.773 1.454 1.03 0 1.943-.224 2.739-.67a4.87 4.87 0 0 0 1.886-1.853c.462-.788.693-1.69.693-2.704ZM106.293 31V7.727h.727V18h.091c.303-.97.742-1.807 1.318-2.511a5.933 5.933 0 0 1 2.034-1.637 5.682 5.682 0 0 1 2.557-.58c1.364 0 2.549.399 3.557 1.194 1.007.795 1.788 1.875 2.341 3.239.553 1.363.829 2.901.829 4.613 0 1.72-.276 3.261-.829 4.625-.546 1.364-1.322 2.443-2.33 3.239-1 .788-2.189 1.182-3.568 1.182a5.704 5.704 0 0 1-2.568-.58 6.039 6.039 0 0 1-2.012-1.636c-.568-.712-1.011-1.55-1.329-2.512h-.091V31h-.727Zm.727-8.682c0 1.576.242 2.993.727 4.25.485 1.25 1.174 2.243 2.068 2.977.902.728 1.97 1.091 3.205 1.091s2.299-.363 3.193-1.09c.902-.735 1.595-1.728 2.08-2.978.484-1.257.727-2.674.727-4.25s-.246-2.989-.739-4.239c-.485-1.257-1.178-2.25-2.079-2.977-.894-.735-1.955-1.102-3.182-1.102-1.227 0-2.292.367-3.193 1.102-.894.727-1.587 1.72-2.08 2.977-.485 1.25-.727 2.663-.727 4.24Zm18.807 8.818a.789.789 0 0 1-.58-.238.789.789 0 0 1-.238-.58c0-.227.079-.42.238-.58a.789.789 0 0 1 .58-.238c.227 0 .42.08.579.239a.79.79 0 0 1 .239.58.812.812 0 0 1-.114.42.71.71 0 0 1-.295.284.756.756 0 0 1-.409.113Zm7.139-.136V13.546h.727v2.772h.091c.409-.909 1.08-1.636 2.011-2.182.94-.545 2.012-.818 3.216-.818h.364v.728h-.364c-1.03 0-1.947.223-2.75.67a4.977 4.977 0 0 0-1.886 1.852c-.455.788-.682 1.69-.682 2.705V31h-.727Zm16.42.364c-1.522 0-2.856-.398-4-1.194-1.136-.795-2.019-1.875-2.647-3.238-.629-1.364-.944-2.902-.944-4.614 0-1.712.315-3.25.944-4.614.636-1.363 1.5-2.443 2.591-3.238 1.09-.795 2.322-1.193 3.693-1.193 1.015 0 1.954.216 2.818.648a7.028 7.028 0 0 1 2.273 1.795 8.493 8.493 0 0 1 1.5 2.648c.363.992.545 2.053.545 3.181v.728h-14v-.727h13.273c0-1.402-.288-2.671-.864-3.807-.576-1.144-1.348-2.053-2.318-2.728A5.526 5.526 0 0 0 149.023 14a5.358 5.358 0 0 0-3.25 1.068c-.97.712-1.746 1.682-2.33 2.91-.583 1.226-.89 2.613-.92 4.158v.091c0 1.523.265 2.924.795 4.205.538 1.273 1.318 2.292 2.341 3.057 1.023.765 2.265 1.147 3.727 1.147 1.076 0 1.978-.189 2.705-.568.735-.379 1.322-.814 1.761-1.307.447-.492.777-.912.989-1.261l.591.41c-.258.439-.644.927-1.159 1.465s-1.175 1.004-1.978 1.398c-.803.394-1.772.59-2.909.59Zm18.469 0c-1.523 0-2.856-.398-4-1.194-1.136-.795-2.019-1.875-2.648-3.238-.628-1.364-.943-2.902-.943-4.614 0-1.712.315-3.25.943-4.614.637-1.363 1.5-2.443 2.591-3.238 1.091-.795 2.322-1.193 3.693-1.193 1.016 0 1.955.216 2.819.648a7.024 7.024 0 0 1 2.272 1.795 8.493 8.493 0 0 1 1.5 2.648c.364.992.546 2.053.546 3.181v.728h-14v-.727h13.273c0-1.402-.288-2.671-.864-3.807-.576-1.144-1.349-2.053-2.318-2.728A5.529 5.529 0 0 0 167.491 14c-1.196 0-2.28.356-3.25 1.068-.969.712-1.746 1.682-2.329 2.91-.583 1.226-.89 2.613-.921 4.158v.091c0 1.523.266 2.924.796 4.205.538 1.273 1.318 2.292 2.341 3.057 1.023.765 2.265 1.147 3.727 1.147 1.076 0 1.977-.189 2.705-.568.735-.379 1.322-.814 1.761-1.307.447-.492.777-.912.989-1.261l.591.41c-.258.439-.644.927-1.16 1.465-.515.538-1.174 1.004-1.977 1.398-.803.394-1.773.59-2.909.59Zm12.651-12.091V31h-.728V13.546h.728v2.772h.091c.409-.909 1.079-1.636 2.011-2.182.939-.545 2.011-.818 3.216-.818 1.167 0 2.197.254 3.091.761a5.497 5.497 0 0 1 2.102 2.103c.508.894.761 1.924.761 3.09V31h-.727V19.273c0-1.546-.485-2.803-1.454-3.773-.97-.97-2.228-1.454-3.773-1.454-1.03 0-1.947.223-2.75.67a4.97 4.97 0 0 0-1.886 1.852c-.455.788-.682 1.69-.682 2.705Zm22.914-5.727v.727h-6.909v-.727h6.909Zm-4.363-4.182h.727v17.954c0 .682.152 1.27.455 1.761.303.485.704.86 1.204 1.125a3.473 3.473 0 0 0 2.216.33c.189-.038.383-.095.58-.17l.227.681a4.717 4.717 0 0 1-.671.194c-.219.053-.465.08-.738.08a4.179 4.179 0 0 1-1.989-.49 3.84 3.84 0 0 1-1.466-1.386c-.363-.598-.545-1.307-.545-2.125V9.364ZM209.091 31V13.546h.727v2.772h.091c.409-.909 1.08-1.636 2.011-2.182.94-.545 2.012-.818 3.216-.818h.364v.728h-.364c-1.03 0-1.947.223-2.75.67a4.977 4.977 0 0 0-1.886 1.852c-.455.788-.682 1.69-.682 2.705V31h-.727Zm11.733 6.545a3.89 3.89 0 0 1-.943-.125 6.043 6.043 0 0 1-1.012-.33l.273-.636c.75.319 1.432.432 2.046.341.621-.083 1.166-.367 1.636-.852.477-.485.871-1.163 1.182-2.034l.932-2.59-6.364-17.773h.773l5.909 16.545h.091l5.909-16.546h.772l-7.34 20.637c-.258.727-.58 1.34-.966 1.84-.387.5-.826.88-1.319 1.137a3.31 3.31 0 0 1-1.579.386Zm21.65-6.227c-1.204 0-2.269-.261-3.193-.784a5.64 5.64 0 0 1-2.17-2.17c-.523-.925-.781-1.985-.773-3.182h.727c-.007 1.59.485 2.89 1.478 3.898 1 1.007 2.31 1.51 3.931 1.51 1.22 0 2.296-.298 3.228-.897.932-.598 1.659-1.413 2.182-2.443.522-1.03.78-2.19.772-3.477-.007-1.38-.299-2.572-.875-3.58-.568-1.007-1.326-1.784-2.272-2.33a6.027 6.027 0 0 0-3.08-.817c-.917 0-1.746.174-2.489.522a6.619 6.619 0 0 0-1.92 1.341l-1.091-.182 1.364-11h10.318v.728h-9.682l-1.182 9.636h.091a6.768 6.768 0 0 1 2.034-1.284c.773-.326 1.625-.489 2.557-.489 1.25 0 2.401.31 3.455.932 1.06.614 1.909 1.481 2.545 2.602.644 1.114.962 2.42.955 3.92-.008 1.44-.307 2.728-.898 3.864-.591 1.137-1.406 2.035-2.443 2.694-1.038.659-2.228.988-3.569.988Zm18.6-23.909a5.7 5.7 0 0 1 2.738.67c.841.44 1.572 1.107 2.194 2 .628.887 1.113 2.008 1.454 3.364.349 1.356.523 2.95.523 4.784 0 1.569-.11 3.125-.33 4.67-.219 1.546-.594 2.955-1.125 4.228-.53 1.273-1.257 2.292-2.181 3.057-.925.757-2.091 1.136-3.5 1.136-1.152 0-2.156-.261-3.012-.784a5.705 5.705 0 0 1-2.034-2.182c-.5-.931-.788-2.003-.863-3.216h.727c.113 1.591.625 2.898 1.534 3.92.909 1.023 2.125 1.535 3.648 1.535 2.113 0 3.708-1.091 4.784-3.273 1.083-2.182 1.625-5.318 1.625-9.409h-.091a5.08 5.08 0 0 1-1.262 2.068 6.647 6.647 0 0 1-4.693 1.932 6.205 6.205 0 0 1-3.363-.954c-1.008-.637-1.815-1.504-2.421-2.603-.598-1.098-.898-2.337-.898-3.716 0-1.287.273-2.48.819-3.58a6.897 6.897 0 0 1 2.295-2.647c.985-.667 2.129-1 3.432-1Zm0 .727c-1.121 0-2.121.292-3 .875-.871.584-1.561 1.368-2.068 2.353-.5.984-.75 2.075-.75 3.272 0 1.228.265 2.338.795 3.33a6.406 6.406 0 0 0 2.159 2.352c.909.576 1.924.864 3.046.864.886 0 1.708-.182 2.466-.546a5.749 5.749 0 0 0 1.931-1.522 5.799 5.799 0 0 0 1.148-2.194c.235-.825.265-1.693.091-2.602-.258-1.364-.663-2.504-1.216-3.42-.545-.917-1.212-1.606-2-2.068-.78-.463-1.648-.694-2.602-.694Zm11.852 17.41V25l10.682-17.273h.454v1.5h-.545l-9.545 15.5v.091h13.272v.727h-14.318ZM283.608 31V7.727h.727V31h-.727Zm20.986 6.182c-1.849 0-3.584-.371-5.205-1.114a13.642 13.642 0 0 1-4.284-3.08 14.444 14.444 0 0 1-2.886-4.545c-.69-1.727-1.034-3.572-1.034-5.534 0-1.977.344-3.83 1.034-5.557a14.444 14.444 0 0 1 2.886-4.545 13.572 13.572 0 0 1 4.284-3.057c1.621-.742 3.356-1.114 5.205-1.114 1.841 0 3.568.372 5.182 1.114a13.478 13.478 0 0 1 4.261 3.057 14.275 14.275 0 0 1 2.875 4.545c.697 1.727 1.045 3.58 1.045 5.557 0 1.03-.136 1.985-.409 2.864a7.397 7.397 0 0 1-1.159 2.306 5.39 5.39 0 0 1-1.75 1.523 4.693 4.693 0 0 1-2.227.534c-.606 0-1.091-.11-1.455-.33-.356-.227-.613-.594-.772-1.102-.152-.515-.228-1.204-.228-2.068h-.091a7.341 7.341 0 0 1-1.397 2 6.56 6.56 0 0 1-1.921 1.341 5.504 5.504 0 0 1-2.272.477 5.655 5.655 0 0 1-2.523-.579 6.628 6.628 0 0 1-2.057-1.625 7.866 7.866 0 0 1-1.375-2.398 8.555 8.555 0 0 1-.5-2.943c0-1.045.167-2.023.5-2.932a7.836 7.836 0 0 1 1.375-2.409 6.483 6.483 0 0 1 2.057-1.614 5.566 5.566 0 0 1 2.523-.59c.803 0 1.56.162 2.272.488a6.194 6.194 0 0 1 1.921 1.352 7.23 7.23 0 0 1 1.397 2.023h.091v-3.636h.728v11.045c0 1.114.117 1.856.352 2.228.235.363.693.545 1.375.545.924 0 1.75-.28 2.477-.84.727-.569 1.299-1.342 1.716-2.319.417-.985.625-2.099.625-3.34 0-1.5-.216-2.929-.648-4.285a13.708 13.708 0 0 0-1.795-3.716 13.116 13.116 0 0 0-2.739-2.932 12.228 12.228 0 0 0-3.477-1.931 11.609 11.609 0 0 0-3.977-.682c-1.75 0-3.39.352-4.921 1.056a12.76 12.76 0 0 0-4.045 2.91 13.711 13.711 0 0 0-2.727 4.306c-.66 1.637-.989 3.394-.989 5.273 0 1.871.329 3.629.989 5.273a13.71 13.71 0 0 0 2.727 4.307 12.758 12.758 0 0 0 4.045 2.909c1.531.704 3.171 1.056 4.921 1.056.833 0 1.647-.087 2.443-.26a11.193 11.193 0 0 0 2.318-.75c.75-.327 1.466-.732 2.148-1.217l.454.591c-.727.515-1.492.947-2.295 1.296a11.82 11.82 0 0 1-2.477.795c-.849.182-1.712.273-2.591.273Zm-.318-7.455a4.84 4.84 0 0 0 2.863-.909c.856-.614 1.538-1.435 2.046-2.466.515-1.03.772-2.178.772-3.443 0-1.258-.257-2.401-.772-3.432-.508-1.03-1.194-1.852-2.057-2.466a4.783 4.783 0 0 0-2.852-.92 4.882 4.882 0 0 0-2.875.92c-.864.614-1.557 1.436-2.08 2.466-.515 1.03-.773 2.174-.773 3.432s.258 2.402.773 3.432c.523 1.03 1.216 1.852 2.08 2.466.871.614 1.829.92 2.875.92Zm18.377 7.818v-24h.728V18h.091c.318-.97.761-1.807 1.329-2.511a6.035 6.035 0 0 1 2.011-1.637 5.712 5.712 0 0 1 2.569-.58c1.378 0 2.568.399 3.568 1.194 1.007.788 1.784 1.864 2.329 3.227.553 1.364.83 2.905.83 4.625 0 1.712-.277 3.25-.83 4.614-.553 1.364-1.333 2.443-2.34 3.239-1.008.795-2.194 1.193-3.557 1.193-.925 0-1.777-.19-2.557-.569a6.116 6.116 0 0 1-2.034-1.636c-.576-.712-1.015-1.553-1.318-2.523h-.091v10.91h-.728Zm.728-15.227c0 1.576.242 2.993.727 4.25.492 1.25 1.186 2.243 2.08 2.977.901.728 1.965 1.091 3.193 1.091 1.227 0 2.288-.363 3.181-1.09.902-.735 1.595-1.728 2.08-2.978.492-1.257.739-2.674.739-4.25s-.243-2.989-.728-4.239c-.484-1.257-1.178-2.25-2.079-2.977-.894-.735-1.958-1.102-3.193-1.102s-2.303.367-3.205 1.102c-.894.727-1.583 1.72-2.068 2.977-.485 1.25-.727 2.663-.727 4.24Zm22.23 9.046a5.976 5.976 0 0 1-2.648-.591 4.799 4.799 0 0 1-1.943-1.727c-.485-.758-.727-1.682-.727-2.773 0-.591.094-1.144.284-1.66.189-.522.522-.996 1-1.42.477-.424 1.144-.788 2-1.09.863-.304 1.966-.535 3.307-.694.803-.09 1.56-.197 2.272-.318.712-.121 1.292-.303 1.739-.546.447-.242.67-.59.67-1.045v-1.046c0-1.34-.45-2.416-1.352-3.227-.901-.818-2.102-1.227-3.602-1.227-1.227 0-2.299.273-3.216.818-.917.538-1.557 1.296-1.921 2.273l-.681-.273a4.893 4.893 0 0 1 1.261-1.886 5.932 5.932 0 0 1 2.023-1.228 7.266 7.266 0 0 1 2.534-.431c.886 0 1.678.132 2.375.398a5.098 5.098 0 0 1 1.795 1.09 4.603 4.603 0 0 1 1.125 1.637c.258.628.387 1.314.387 2.056V31h-.728v-3.546h-.091a7.217 7.217 0 0 1-1.42 2.069 6.253 6.253 0 0 1-2 1.363 6.19 6.19 0 0 1-2.443.478Zm0-.728c1.106 0 2.11-.295 3.011-.886.902-.599 1.618-1.428 2.148-2.489.53-1.068.795-2.306.795-3.715v-2.637c-.212.16-.469.3-.772.42a7.958 7.958 0 0 1-1.012.33c-.371.091-.776.17-1.216.239-.439.068-.909.132-1.409.193-1.56.182-2.788.458-3.682.83-.894.37-1.526.837-1.897 1.397-.372.56-.557 1.212-.557 1.955 0 1.318.439 2.375 1.318 3.17.886.796 1.977 1.193 3.273 1.193Zm23.403-13.409-.727.182c-.235-.758-.564-1.386-.989-1.886a3.856 3.856 0 0 0-1.534-1.137c-.606-.257-1.31-.386-2.113-.386-1.394 0-2.523.356-3.387 1.068-.863.705-1.295 1.636-1.295 2.796 0 .916.291 1.685.875 2.306.591.622 1.481 1.08 2.67 1.375l2.727.682c1.281.319 2.25.856 2.91 1.614.666.758 1 1.674 1 2.75 0 .947-.25 1.78-.75 2.5-.493.72-1.175 1.28-2.046 1.682-.871.394-1.879.59-3.023.59-1.553 0-2.822-.378-3.806-1.136-.985-.757-1.625-1.833-1.921-3.227l.727-.182c.258 1.235.807 2.182 1.648 2.841.849.652 1.966.977 3.352.977 1.516 0 2.743-.37 3.682-1.113.94-.743 1.409-1.72 1.409-2.932 0-.902-.28-1.663-.841-2.284-.56-.621-1.401-1.072-2.522-1.352l-2.728-.682c-1.341-.334-2.359-.88-3.056-1.637-.69-.757-1.035-1.681-1.035-2.772 0-.917.228-1.716.682-2.398.462-.69 1.099-1.227 1.909-1.614.819-.386 1.758-.58 2.819-.58 1.348 0 2.473.334 3.375 1 .901.66 1.564 1.645 1.988 2.955Zm15.781 0-.727.182c-.235-.758-.564-1.386-.988-1.886a3.86 3.86 0 0 0-1.535-1.137c-.606-.257-1.31-.386-2.113-.386-1.394 0-2.523.356-3.387 1.068-.863.705-1.295 1.636-1.295 2.796 0 .916.292 1.685.875 2.306.591.622 1.481 1.08 2.67 1.375l2.728.682c1.28.319 2.25.856 2.909 1.614.666.758 1 1.674 1 2.75 0 .947-.25 1.78-.75 2.5-.493.72-1.174 1.28-2.046 1.682-.871.394-1.878.59-3.022.59-1.553 0-2.822-.378-3.807-1.136-.985-.757-1.625-1.833-1.921-3.227l.728-.182c.257 1.235.806 2.182 1.647 2.841.849.652 1.966.977 3.353.977 1.515 0 2.742-.37 3.681-1.113.94-.743 1.41-1.72 1.41-2.932 0-.902-.281-1.663-.841-2.284-.561-.621-1.402-1.072-2.523-1.352l-2.727-.682c-1.341-.334-2.36-.88-3.057-1.637-.69-.757-1.034-1.681-1.034-2.772 0-.917.227-1.716.682-2.398.462-.69 1.098-1.227 1.909-1.614.818-.386 1.757-.58 2.818-.58 1.348 0 2.473.334 3.375 1 .901.66 1.564 1.645 1.988 2.955ZM390.213 31V13.546h.727V31h-.727Zm.364-20.636a.7.7 0 0 1-.512-.216.699.699 0 0 1-.216-.512c0-.197.072-.367.216-.511a.7.7 0 0 1 .512-.216c.197 0 .367.072.511.216a.699.699 0 0 1 .216.511.699.699 0 0 1-.216.512.698.698 0 0 1-.511.216Zm7.366 8.909V31h-.727V13.546h.727v2.772h.091c.409-.909 1.08-1.636 2.011-2.182.94-.545 2.012-.818 3.216-.818 1.167 0 2.197.254 3.091.761a5.5 5.5 0 0 1 2.103 2.103c.507.894.761 1.924.761 3.09V31h-.727V19.273c0-1.546-.485-2.803-1.455-3.773-.97-.97-2.227-1.454-3.773-1.454-1.03 0-1.947.223-2.75.67a4.977 4.977 0 0 0-1.886 1.852c-.455.788-.682 1.69-.682 2.705ZM415.949 31V7.727h.727V18h.091c.303-.97.742-1.807 1.318-2.511a5.933 5.933 0 0 1 2.034-1.637 5.685 5.685 0 0 1 2.557-.58c1.364 0 2.549.399 3.557 1.194 1.008.795 1.788 1.875 2.341 3.239.553 1.363.829 2.901.829 4.613 0 1.72-.276 3.261-.829 4.625-.546 1.364-1.322 2.443-2.33 3.239-1 .788-2.189 1.182-3.568 1.182a5.704 5.704 0 0 1-2.568-.58 6.026 6.026 0 0 1-2.011-1.636c-.569-.712-1.012-1.55-1.33-2.512h-.091V31h-.727Zm.727-8.682c0 1.576.243 2.993.727 4.25.485 1.25 1.175 2.243 2.069 2.977.901.728 1.969 1.091 3.204 1.091s2.299-.363 3.193-1.09c.902-.735 1.595-1.728 2.08-2.978.485-1.257.727-2.674.727-4.25s-.246-2.989-.738-4.239c-.485-1.257-1.179-2.25-2.08-2.977-.894-.735-1.955-1.102-3.182-1.102-1.227 0-2.292.367-3.193 1.102-.894.727-1.587 1.72-2.08 2.977-.484 1.25-.727 2.663-.727 4.24Zm24.034 9.046c-1.371 0-2.602-.394-3.693-1.182-1.091-.796-1.954-1.875-2.591-3.239-.629-1.371-.943-2.913-.943-4.625 0-1.72.314-3.261.943-4.625.637-1.364 1.5-2.44 2.591-3.227 1.091-.795 2.322-1.193 3.693-1.193s2.599.398 3.682 1.193c1.091.795 1.955 1.875 2.591 3.239.636 1.363.955 2.901.955 4.613 0 1.712-.319 3.254-.955 4.625-.629 1.364-1.489 2.443-2.58 3.239-1.09.788-2.322 1.182-3.693 1.182Zm0-.728a5.416 5.416 0 0 0 3.318-1.09c.985-.728 1.762-1.72 2.33-2.978.568-1.257.852-2.674.852-4.25s-.288-2.989-.863-4.239c-.569-1.257-1.341-2.25-2.319-2.977A5.378 5.378 0 0 0 440.71 14a5.412 5.412 0 0 0-3.318 1.102c-.977.727-1.754 1.72-2.33 2.977-.568 1.25-.852 2.663-.852 4.24 0 1.575.284 2.992.852 4.25.569 1.257 1.341 2.25 2.319 2.977a5.464 5.464 0 0 0 3.329 1.09Zm11.404-17.09 5.136 8.068 5.136-8.069h.864l-5.568 8.728L463.25 31h-.864l-5.136-8.068L452.114 31h-.864l5.568-8.727-5.568-8.727h.864Zm17.181 17.59a.788.788 0 0 1-.579-.238.79.79 0 0 1-.239-.58c0-.227.08-.42.239-.58a.788.788 0 0 1 .579-.238c.228 0 .421.08.58.239a.79.79 0 0 1 .239.58.812.812 0 0 1-.114.42.716.716 0 0 1-.295.284.76.76 0 0 1-.41.113Zm13.412.228c-1.409 0-2.666-.394-3.772-1.182-1.099-.796-1.966-1.875-2.603-3.239-.628-1.364-.943-2.905-.943-4.625 0-1.704.315-3.239.943-4.602.629-1.371 1.493-2.455 2.591-3.25 1.106-.795 2.368-1.193 3.784-1.193 1.046 0 2.004.227 2.875.681a6.142 6.142 0 0 1 2.205 1.887c.591.803.973 1.735 1.148 2.795h-.773c-.235-1.37-.86-2.485-1.875-3.34-1.008-.864-2.201-1.296-3.58-1.296-1.25 0-2.375.364-3.375 1.09-.992.72-1.776 1.71-2.352 2.967-.576 1.25-.864 2.67-.864 4.261 0 1.546.277 2.947.83 4.205.561 1.257 1.337 2.257 2.33 3 .992.742 2.136 1.113 3.431 1.113.932 0 1.788-.193 2.569-.58a5.333 5.333 0 0 0 1.943-1.658c.522-.712.852-1.542.988-2.489h.773c-.167 1.099-.545 2.057-1.136 2.875a6.181 6.181 0 0 1-2.216 1.91c-.887.446-1.86.67-2.921.67Zm17.597 0c-1.371 0-2.602-.394-3.693-1.182-1.091-.796-1.955-1.875-2.591-3.239-.629-1.371-.943-2.913-.943-4.625 0-1.72.314-3.261.943-4.625.636-1.364 1.5-2.44 2.591-3.227 1.091-.795 2.322-1.193 3.693-1.193s2.598.398 3.682 1.193c1.091.795 1.954 1.875 2.591 3.239.636 1.363.954 2.901.954 4.613 0 1.712-.318 3.254-.954 4.625-.629 1.364-1.489 2.443-2.58 3.239-1.091.788-2.322 1.182-3.693 1.182Zm0-.728a5.416 5.416 0 0 0 3.318-1.09c.985-.728 1.762-1.72 2.33-2.978.568-1.257.852-2.674.852-4.25s-.288-2.989-.864-4.239c-.568-1.257-1.341-2.25-2.318-2.977A5.378 5.378 0 0 0 500.304 14a5.412 5.412 0 0 0-3.318 1.102c-.977.727-1.754 1.72-2.33 2.977-.568 1.25-.852 2.663-.852 4.24 0 1.575.284 2.992.852 4.25.568 1.257 1.341 2.25 2.318 2.977a5.467 5.467 0 0 0 3.33 1.09Zm12.349.364V13.546h.728v2.59h.091c.318-.848.886-1.53 1.704-2.045.826-.515 1.818-.773 2.977-.773 1.319 0 2.368.326 3.148.978.788.651 1.33 1.522 1.625 2.613h.091c.288-1.09.871-1.962 1.75-2.613.879-.652 1.977-.978 3.295-.978 1.75 0 3.042.557 3.876 1.67.84 1.107 1.261 2.535 1.261 4.285V31h-.727V19.273c0-1.546-.349-2.803-1.046-3.773-.697-.97-1.818-1.454-3.364-1.454-1.545 0-2.727.492-3.545 1.477-.818.977-1.227 2.227-1.227 3.75V31h-.728V19.273c0-1.546-.348-2.803-1.045-3.773-.697-.97-1.818-1.454-3.364-1.454-1.03 0-1.901.223-2.613.67a4.318 4.318 0 0 0-1.614 1.852c-.363.788-.545 1.69-.545 2.705V31h-.728Z" />
    </g>
</svg>