<svg width="800" height="39" viewBox="0 0 800 39" fill="none" xmlns="http://www.w3.org/2000/svg">
<path d="M153.25 14.25V24.75C153.25 25.3467 153.013 25.919 152.591 26.341C152.169 26.7629 151.597 27 151 27H136C135.403 27 134.831 26.7629 134.409 26.341C133.987 25.919 133.75 25.3467 133.75 24.75V14.25M153.25 14.25C153.25 13.6533 153.013 13.081 152.591 12.659C152.169 12.2371 151.597 12 151 12H136C135.403 12 134.831 12.2371 134.409 12.659C133.987 13.081 133.75 13.6533 133.75 14.25M153.25 14.25V14.493C153.25 14.8771 153.152 15.2549 152.964 15.5903C152.777 15.9257 152.507 16.2075 152.18 16.409L144.68 21.024C144.325 21.2425 143.917 21.3582 143.5 21.3582C143.083 21.3582 142.675 21.2425 142.32 21.024L134.82 16.41C134.493 16.2085 134.223 15.9267 134.036 15.5913C133.848 15.2559 133.75 14.8781 133.75 14.494V14.25" stroke="#181A1B" stroke-width="1.5" stroke-linecap="round" stroke-linejoin="round"/>
<path d="M169.5 37.9091C168.523 37.9091 167.621 37.7765 166.795 37.5114C165.97 37.2538 165.258 36.8636 164.659 36.3409C164.061 35.8258 163.614 35.1818 163.318 34.4091L164 34.1364C164.265 34.8182 164.659 35.3826 165.182 35.8295C165.712 36.2841 166.345 36.6212 167.08 36.8409C167.822 37.0682 168.629 37.1818 169.5 37.1818C171.318 37.1818 172.735 36.7008 173.75 35.7386C174.765 34.7841 175.273 33.3258 175.273 31.3636V26.6364H175.182C174.879 27.6061 174.428 28.4167 173.83 29.0682C173.231 29.7121 172.538 30.197 171.75 30.5227C170.962 30.8409 170.136 31 169.273 31C167.909 31 166.723 30.6326 165.716 29.8977C164.708 29.1629 163.928 28.1439 163.375 26.8409C162.822 25.5379 162.545 24.0303 162.545 22.3182C162.545 20.5909 162.818 19.0455 163.364 17.6818C163.909 16.3182 164.686 15.2424 165.693 14.4545C166.701 13.6667 167.894 13.2727 169.273 13.2727C170.212 13.2727 171.068 13.4659 171.841 13.8523C172.614 14.2311 173.284 14.7765 173.852 15.4886C174.42 16.1932 174.864 17.0303 175.182 18H175.273V13.5455H176V31.3636C176 32.7955 175.739 33.9962 175.216 34.9659C174.693 35.9432 173.947 36.678 172.977 37.1705C172.008 37.6629 170.848 37.9091 169.5 37.9091ZM169.273 30.2727C170.485 30.2727 171.538 29.9508 172.432 29.3068C173.333 28.6629 174.03 27.7462 174.523 26.5568C175.023 25.3598 175.273 23.947 175.273 22.3182C175.273 20.7424 175.03 19.3295 174.545 18.0795C174.061 16.822 173.367 15.8295 172.466 15.1023C171.572 14.3674 170.508 14 169.273 14C168.038 14 166.97 14.3674 166.068 15.1023C165.174 15.8295 164.485 16.822 164 18.0795C163.515 19.3295 163.273 20.7424 163.273 22.3182C163.273 23.8939 163.515 25.2803 164 26.4773C164.492 27.6667 165.186 28.5985 166.08 29.2727C166.981 29.9394 168.045 30.2727 169.273 30.2727ZM182.369 31V13.5455H183.097V31H182.369ZM182.733 10.3636C182.536 10.3636 182.366 10.2917 182.222 10.1477C182.078 10.0038 182.006 9.83333 182.006 9.63636C182.006 9.43939 182.078 9.26894 182.222 9.125C182.366 8.98106 182.536 8.90909 182.733 8.90909C182.93 8.90909 183.1 8.98106 183.244 9.125C183.388 9.26894 183.46 9.43939 183.46 9.63636C183.46 9.83333 183.388 10.0038 183.244 10.1477C183.1 10.2917 182.93 10.3636 182.733 10.3636ZM194.827 13.5455V14.2727H187.918V13.5455H194.827ZM190.463 9.36364H191.19V27.3182C191.19 28 191.342 28.5871 191.645 29.0795C191.948 29.5644 192.349 29.9394 192.849 30.2045C193.349 30.4621 193.887 30.5909 194.463 30.5909C194.683 30.5909 194.884 30.572 195.065 30.5341C195.255 30.4962 195.448 30.4394 195.645 30.3636L195.872 31.0455C195.645 31.1288 195.421 31.1932 195.202 31.2386C194.982 31.2917 194.736 31.3182 194.463 31.3182C193.751 31.3182 193.088 31.1553 192.474 30.8295C191.868 30.5038 191.38 30.0417 191.009 29.4432C190.645 28.8447 190.463 28.1364 190.463 27.3182V9.36364ZM201.599 19.2727V31H200.872V7.72727H201.599V16.3182H201.69C202.099 15.4091 202.77 14.6818 203.702 14.1364C204.641 13.5909 205.713 13.3182 206.918 13.3182C208.084 13.3182 209.115 13.572 210.009 14.0795C210.902 14.5871 211.603 15.2879 212.111 16.1818C212.618 17.0758 212.872 18.1061 212.872 19.2727V31H212.145V19.2727C212.145 17.7273 211.66 16.4697 210.69 15.5C209.721 14.5303 208.463 14.0455 206.918 14.0455C205.887 14.0455 204.971 14.2689 204.168 14.7159C203.372 15.1629 202.743 15.7803 202.281 16.5682C201.827 17.3561 201.599 18.2576 201.599 19.2727ZM230.332 25.2727V13.5455H231.06V31H230.332V28.2273H230.241C229.832 29.1364 229.158 29.8636 228.219 30.4091C227.287 30.9545 226.219 31.2273 225.014 31.2273C223.848 31.2273 222.817 30.9735 221.923 30.4659C221.029 29.9583 220.329 29.2576 219.821 28.3636C219.313 27.4697 219.06 26.4394 219.06 25.2727V13.5455H219.787V25.2727C219.787 26.8182 220.272 28.0758 221.241 29.0455C222.211 30.0152 223.469 30.5 225.014 30.5C226.045 30.5 226.957 30.2765 227.753 29.8295C228.556 29.3826 229.185 28.7652 229.639 27.9773C230.101 27.1894 230.332 26.2879 230.332 25.2727ZM237.793 31V7.72727H238.52V18H238.611C238.914 17.0303 239.353 16.1932 239.929 15.4886C240.505 14.7765 241.183 14.2311 241.963 13.8523C242.743 13.4659 243.596 13.2727 244.52 13.2727C245.884 13.2727 247.069 13.6705 248.077 14.4659C249.084 15.2614 249.865 16.3409 250.418 17.7045C250.971 19.0682 251.247 20.6061 251.247 22.3182C251.247 24.0379 250.971 25.5795 250.418 26.9432C249.872 28.3068 249.096 29.3864 248.088 30.1818C247.088 30.9697 245.899 31.3636 244.52 31.3636C243.588 31.3636 242.732 31.1705 241.952 30.7841C241.179 30.3977 240.509 29.8523 239.94 29.1477C239.372 28.4356 238.929 27.5985 238.611 26.6364H238.52V31H237.793ZM238.52 22.3182C238.52 23.8939 238.762 25.3106 239.247 26.5682C239.732 27.8182 240.421 28.8106 241.315 29.5455C242.217 30.2727 243.285 30.6364 244.52 30.6364C245.755 30.6364 246.819 30.2727 247.713 29.5455C248.615 28.8106 249.308 27.8182 249.793 26.5682C250.277 25.3106 250.52 23.8939 250.52 22.3182C250.52 20.7424 250.274 19.3295 249.781 18.0795C249.296 16.822 248.603 15.8295 247.702 15.1023C246.808 14.3674 245.747 14 244.52 14C243.293 14 242.228 14.3674 241.327 15.1023C240.433 15.8295 239.74 16.822 239.247 18.0795C238.762 19.3295 238.52 20.7424 238.52 22.3182ZM257.327 31.1364C257.099 31.1364 256.906 31.0568 256.747 30.8977C256.588 30.7386 256.509 30.5455 256.509 30.3182C256.509 30.0909 256.588 29.8977 256.747 29.7386C256.906 29.5795 257.099 29.5 257.327 29.5C257.554 29.5 257.747 29.5795 257.906 29.7386C258.065 29.8977 258.145 30.0909 258.145 30.3182C258.145 30.4697 258.107 30.6098 258.031 30.7386C257.963 30.8598 257.865 30.9545 257.736 31.0227C257.615 31.0985 257.478 31.1364 257.327 31.1364ZM264.466 31V13.5455H265.193V16.3182H265.284C265.693 15.4091 266.364 14.6818 267.295 14.1364C268.235 13.5909 269.307 13.3182 270.511 13.3182C270.602 13.3182 270.663 13.3182 270.693 13.3182C270.723 13.3182 270.784 13.3182 270.875 13.3182V14.0455C270.784 14.0455 270.723 14.0455 270.693 14.0455C270.663 14.0455 270.602 14.0455 270.511 14.0455C269.481 14.0455 268.564 14.2689 267.761 14.7159C266.966 15.1629 266.337 15.7803 265.875 16.5682C265.42 17.3561 265.193 18.2576 265.193 19.2727V31H264.466ZM280.886 31.3636C279.364 31.3636 278.03 30.9659 276.886 30.1705C275.75 29.375 274.867 28.2955 274.239 26.9318C273.61 25.5682 273.295 24.0303 273.295 22.3182C273.295 20.6061 273.61 19.0682 274.239 17.7045C274.875 16.3409 275.739 15.2614 276.83 14.4659C277.92 13.6705 279.152 13.2727 280.523 13.2727C281.538 13.2727 282.477 13.4886 283.341 13.9205C284.212 14.3523 284.97 14.9508 285.614 15.7159C286.258 16.4811 286.758 17.3636 287.114 18.3636C287.477 19.3561 287.659 20.4167 287.659 21.5455V22.2727H273.659V21.5455H286.932C286.932 20.1439 286.644 18.875 286.068 17.7386C285.492 16.5947 284.72 15.6856 283.75 15.0114C282.78 14.3371 281.705 14 280.523 14C279.326 14 278.242 14.3561 277.273 15.0682C276.303 15.7803 275.527 16.75 274.943 17.9773C274.36 19.2045 274.053 20.5909 274.023 22.1364V22.2273C274.023 23.75 274.288 25.1515 274.818 26.4318C275.356 27.7045 276.136 28.7235 277.159 29.4886C278.182 30.2538 279.424 30.6364 280.886 30.6364C281.962 30.6364 282.864 30.447 283.591 30.0682C284.326 29.6894 284.913 29.2538 285.352 28.7614C285.799 28.2689 286.129 27.8485 286.341 27.5L286.932 27.9091C286.674 28.3485 286.288 28.8371 285.773 29.375C285.258 29.9129 284.598 30.3788 283.795 30.7727C282.992 31.1667 282.023 31.3636 280.886 31.3636ZM299.355 31.3636C297.832 31.3636 296.499 30.9659 295.355 30.1705C294.219 29.375 293.336 28.2955 292.707 26.9318C292.079 25.5682 291.764 24.0303 291.764 22.3182C291.764 20.6061 292.079 19.0682 292.707 17.7045C293.344 16.3409 294.207 15.2614 295.298 14.4659C296.389 13.6705 297.62 13.2727 298.991 13.2727C300.007 13.2727 300.946 13.4886 301.81 13.9205C302.681 14.3523 303.438 14.9508 304.082 15.7159C304.726 16.4811 305.226 17.3636 305.582 18.3636C305.946 19.3561 306.128 20.4167 306.128 21.5455V22.2727H292.128V21.5455H305.401C305.401 20.1439 305.113 18.875 304.537 17.7386C303.961 16.5947 303.188 15.6856 302.219 15.0114C301.249 14.3371 300.173 14 298.991 14C297.795 14 296.711 14.3561 295.741 15.0682C294.772 15.7803 293.995 16.75 293.412 17.9773C292.829 19.2045 292.522 20.5909 292.491 22.1364V22.2273C292.491 23.75 292.757 25.1515 293.287 26.4318C293.825 27.7045 294.605 28.7235 295.628 29.4886C296.651 30.2538 297.893 30.6364 299.355 30.6364C300.431 30.6364 301.332 30.447 302.06 30.0682C302.795 29.6894 303.382 29.2538 303.821 28.7614C304.268 28.2689 304.598 27.8485 304.81 27.5L305.401 27.9091C305.143 28.3485 304.757 28.8371 304.241 29.375C303.726 29.9129 303.067 30.3788 302.264 30.7727C301.461 31.1667 300.491 31.3636 299.355 31.3636ZM312.006 19.2727V31H311.278V13.5455H312.006V16.3182H312.097C312.506 15.4091 313.176 14.6818 314.108 14.1364C315.047 13.5909 316.119 13.3182 317.324 13.3182C318.491 13.3182 319.521 13.572 320.415 14.0795C321.309 14.5871 322.009 15.2879 322.517 16.1818C323.025 17.0758 323.278 18.1061 323.278 19.2727V31H322.551V19.2727C322.551 17.7273 322.066 16.4697 321.097 15.5C320.127 14.5303 318.869 14.0455 317.324 14.0455C316.294 14.0455 315.377 14.2689 314.574 14.7159C313.778 15.1629 313.15 15.7803 312.688 16.5682C312.233 17.3561 312.006 18.2576 312.006 19.2727ZM334.92 13.5455V14.2727H328.011V13.5455H334.92ZM330.557 9.36364H331.284V27.3182C331.284 28 331.436 28.5871 331.739 29.0795C332.042 29.5644 332.443 29.9394 332.943 30.2045C333.443 30.4621 333.981 30.5909 334.557 30.5909C334.777 30.5909 334.977 30.572 335.159 30.5341C335.348 30.4962 335.542 30.4394 335.739 30.3636L335.966 31.0455C335.739 31.1288 335.515 31.1932 335.295 31.2386C335.076 31.2917 334.83 31.3182 334.557 31.3182C333.845 31.3182 333.182 31.1553 332.568 30.8295C331.962 30.5038 331.473 30.0417 331.102 29.4432C330.739 28.8447 330.557 28.1364 330.557 27.3182V9.36364ZM340.591 31V13.5455H341.318V16.3182H341.409C341.818 15.4091 342.489 14.6818 343.42 14.1364C344.36 13.5909 345.432 13.3182 346.636 13.3182C346.727 13.3182 346.788 13.3182 346.818 13.3182C346.848 13.3182 346.909 13.3182 347 13.3182V14.0455C346.909 14.0455 346.848 14.0455 346.818 14.0455C346.788 14.0455 346.727 14.0455 346.636 14.0455C345.606 14.0455 344.689 14.2689 343.886 14.7159C343.091 15.1629 342.462 15.7803 342 16.5682C341.545 17.3561 341.318 18.2576 341.318 19.2727V31H340.591ZM352.324 37.5455C352.028 37.5455 351.714 37.5038 351.381 37.4205C351.047 37.3447 350.71 37.2348 350.369 37.0909L350.642 36.4545C351.392 36.7727 352.074 36.8864 352.688 36.7955C353.309 36.7121 353.854 36.428 354.324 35.9432C354.801 35.4583 355.195 34.7803 355.506 33.9091L356.438 31.3182L350.074 13.5455H350.847L356.756 30.0909H356.847L362.756 13.5455H363.528L356.188 34.1818C355.93 34.9091 355.608 35.5227 355.222 36.0227C354.835 36.5227 354.396 36.9015 353.903 37.1591C353.419 37.4167 352.892 37.5455 352.324 37.5455ZM373.974 31.3182C372.77 31.3182 371.705 31.0568 370.781 30.5341C369.857 30.0114 369.134 29.2879 368.611 28.3636C368.088 27.4394 367.83 26.3788 367.838 25.1818H368.565C368.558 26.7727 369.05 28.072 370.043 29.0795C371.043 30.0871 372.353 30.5909 373.974 30.5909C375.194 30.5909 376.27 30.2917 377.202 29.6932C378.134 29.0947 378.861 28.2803 379.384 27.25C379.906 26.2197 380.164 25.0606 380.156 23.7727C380.149 22.3939 379.857 21.2008 379.281 20.1932C378.713 19.1856 377.955 18.4091 377.009 17.8636C376.069 17.3182 375.043 17.0455 373.929 17.0455C373.012 17.0455 372.183 17.2197 371.44 17.5682C370.698 17.9167 370.058 18.3636 369.52 18.9091L368.429 18.7273L369.793 7.72727H380.111V8.45454H370.429L369.247 18.0909H369.338C369.921 17.553 370.599 17.125 371.372 16.8068C372.145 16.4811 372.997 16.3182 373.929 16.3182C375.179 16.3182 376.33 16.6288 377.384 17.25C378.444 17.8636 379.293 18.7311 379.929 19.8523C380.573 20.9659 380.891 22.2727 380.884 23.7727C380.876 25.2121 380.577 26.5 379.986 27.6364C379.395 28.7727 378.58 29.6705 377.543 30.3295C376.505 30.9886 375.315 31.3182 373.974 31.3182ZM392.574 7.40909C393.566 7.40909 394.479 7.63257 395.312 8.07954C396.153 8.51894 396.884 9.18561 397.506 10.0795C398.134 10.9659 398.619 12.0871 398.96 13.4432C399.309 14.7992 399.483 16.3939 399.483 18.2273C399.483 19.7955 399.373 21.3523 399.153 22.8977C398.934 24.4432 398.559 25.8523 398.028 27.125C397.498 28.3977 396.771 29.4167 395.847 30.1818C394.922 30.9394 393.756 31.3182 392.347 31.3182C391.195 31.3182 390.191 31.0568 389.335 30.5341C388.479 30.0038 387.801 29.2765 387.301 28.3523C386.801 27.4205 386.513 26.3485 386.438 25.1364H387.165C387.278 26.7273 387.79 28.0341 388.699 29.0568C389.608 30.0795 390.824 30.5909 392.347 30.5909C394.46 30.5909 396.055 29.5 397.131 27.3182C398.214 25.1364 398.756 22 398.756 17.9091H398.665C398.422 18.6818 398.002 19.3712 397.403 19.9773C396.805 20.5758 396.097 21.0492 395.278 21.3977C394.46 21.7386 393.604 21.9091 392.71 21.9091C391.483 21.9091 390.362 21.5909 389.347 20.9545C388.339 20.3182 387.532 19.4508 386.926 18.3523C386.328 17.2538 386.028 16.0152 386.028 14.6364C386.028 13.3485 386.301 12.1553 386.847 11.0568C387.4 9.95833 388.165 9.07576 389.142 8.40909C390.127 7.74242 391.271 7.40909 392.574 7.40909ZM392.574 8.13636C391.453 8.13636 390.453 8.42803 389.574 9.01136C388.703 9.5947 388.013 10.3788 387.506 11.3636C387.006 12.3485 386.756 13.4394 386.756 14.6364C386.756 15.8636 387.021 16.9735 387.551 17.9659C388.089 18.9508 388.809 19.7348 389.71 20.3182C390.619 20.8939 391.634 21.1818 392.756 21.1818C393.642 21.1818 394.464 21 395.222 20.6364C395.979 20.2652 396.623 19.7576 397.153 19.1136C397.691 18.4697 398.074 17.7386 398.301 16.9205C398.536 16.0947 398.566 15.2273 398.392 14.3182C398.134 12.9545 397.729 11.8144 397.176 10.8977C396.631 9.98106 395.964 9.29167 395.176 8.82954C394.396 8.36742 393.528 8.13636 392.574 8.13636ZM404.426 25.5455V25L415.108 7.72727H415.562V9.22727H415.017L405.472 24.7273V24.8182H418.744V25.5455H404.426ZM415.108 31V25.3182V25.0909V7.72727H415.835V31H415.108ZM436.094 37.1818C434.245 37.1818 432.51 36.8106 430.889 36.0682C429.268 35.3258 427.84 34.2992 426.605 32.9886C425.378 31.6856 424.416 30.1705 423.719 28.4432C423.029 26.7159 422.685 24.8712 422.685 22.9091C422.685 20.9318 423.029 19.0795 423.719 17.3523C424.416 15.625 425.378 14.1098 426.605 12.8068C427.84 11.5038 429.268 10.4848 430.889 9.75C432.51 9.00757 434.245 8.63636 436.094 8.63636C437.935 8.63636 439.662 9.00757 441.276 9.75C442.889 10.4848 444.31 11.5038 445.537 12.8068C446.764 14.1098 447.723 15.625 448.412 17.3523C449.109 19.0795 449.457 20.9318 449.457 22.9091C449.457 23.9394 449.321 24.8939 449.048 25.7727C448.776 26.6515 448.389 27.4205 447.889 28.0795C447.397 28.7311 446.813 29.2386 446.139 29.6023C445.465 29.9583 444.723 30.1364 443.912 30.1364C443.306 30.1364 442.821 30.0265 442.457 29.8068C442.101 29.5795 441.844 29.2121 441.685 28.7045C441.533 28.1894 441.457 27.5 441.457 26.6364H441.366C441.003 27.3939 440.537 28.0606 439.969 28.6364C439.401 29.2045 438.76 29.6515 438.048 29.9773C437.336 30.2955 436.579 30.4545 435.776 30.4545C434.882 30.4545 434.041 30.2614 433.253 29.875C432.473 29.4811 431.787 28.9394 431.196 28.25C430.613 27.5606 430.154 26.7614 429.821 25.8523C429.488 24.9356 429.321 23.9545 429.321 22.9091C429.321 21.8636 429.488 20.8864 429.821 19.9773C430.154 19.0606 430.613 18.2576 431.196 17.5682C431.787 16.8788 432.473 16.3409 433.253 15.9545C434.041 15.5606 434.882 15.3636 435.776 15.3636C436.579 15.3636 437.336 15.5265 438.048 15.8523C438.76 16.1705 439.401 16.6212 439.969 17.2045C440.537 17.7803 441.003 18.4545 441.366 19.2273H441.457V15.5909H442.185V26.6364C442.185 27.75 442.302 28.4924 442.537 28.8636C442.772 29.2273 443.23 29.4091 443.912 29.4091C444.836 29.4091 445.662 29.1288 446.389 28.5682C447.116 28 447.688 27.2273 448.105 26.25C448.522 25.2652 448.73 24.1515 448.73 22.9091C448.73 21.4091 448.514 19.9811 448.082 18.625C447.658 17.2689 447.06 16.0303 446.287 14.9091C445.514 13.7803 444.601 12.803 443.548 11.9773C442.495 11.1439 441.336 10.5 440.071 10.0455C438.813 9.59091 437.488 9.36364 436.094 9.36364C434.344 9.36364 432.704 9.71591 431.173 10.4205C429.643 11.1174 428.295 12.0871 427.128 13.3295C425.969 14.5644 425.06 16 424.401 17.6364C423.741 19.2727 423.412 21.0303 423.412 22.9091C423.412 24.7803 423.741 26.5379 424.401 28.1818C425.06 29.8182 425.969 31.2538 427.128 32.4886C428.295 33.7311 429.643 34.7008 431.173 35.3977C432.704 36.1023 434.344 36.4545 436.094 36.4545C436.927 36.4545 437.741 36.3674 438.537 36.1932C439.34 36.0265 440.113 35.7765 440.855 35.4432C441.605 35.1174 442.321 34.7121 443.003 34.2273L443.457 34.8182C442.73 35.3333 441.965 35.7652 441.162 36.1136C440.366 36.4697 439.541 36.7348 438.685 36.9091C437.836 37.0909 436.973 37.1818 436.094 37.1818ZM435.776 29.7273C436.829 29.7273 437.783 29.4242 438.639 28.8182C439.495 28.2045 440.177 27.3826 440.685 26.3523C441.2 25.322 441.457 24.1742 441.457 22.9091C441.457 21.6515 441.2 20.5076 440.685 19.4773C440.177 18.447 439.491 17.625 438.628 17.0114C437.772 16.3977 436.821 16.0909 435.776 16.0909C434.73 16.0909 433.772 16.3977 432.901 17.0114C432.037 17.625 431.344 18.447 430.821 19.4773C430.306 20.5076 430.048 21.6515 430.048 22.9091C430.048 24.1667 430.306 25.3106 430.821 26.3409C431.344 27.3712 432.037 28.1932 432.901 28.8068C433.772 29.4205 434.73 29.7273 435.776 29.7273ZM454.153 37.5455V13.5455H454.881V18H454.972C455.29 17.0303 455.733 16.1932 456.301 15.4886C456.869 14.7841 457.54 14.2386 458.312 13.8523C459.093 13.4659 459.949 13.2727 460.881 13.2727C462.259 13.2727 463.449 13.6705 464.449 14.4659C465.456 15.2538 466.233 16.3295 466.778 17.6932C467.331 19.0568 467.608 20.5985 467.608 22.3182C467.608 24.0303 467.331 25.5682 466.778 26.9318C466.225 28.2955 465.445 29.375 464.438 30.1705C463.43 30.9659 462.244 31.3636 460.881 31.3636C459.956 31.3636 459.104 31.1742 458.324 30.7955C457.544 30.4091 456.866 29.8636 456.29 29.1591C455.714 28.447 455.275 27.6061 454.972 26.6364H454.881V37.5455H454.153ZM454.881 22.3182C454.881 23.8939 455.123 25.3106 455.608 26.5682C456.1 27.8182 456.794 28.8106 457.688 29.5455C458.589 30.2727 459.653 30.6364 460.881 30.6364C462.108 30.6364 463.169 30.2727 464.062 29.5455C464.964 28.8106 465.657 27.8182 466.142 26.5682C466.634 25.3106 466.881 23.8939 466.881 22.3182C466.881 20.7424 466.638 19.3295 466.153 18.0795C465.669 16.822 464.975 15.8295 464.074 15.1023C463.18 14.3674 462.116 14 460.881 14C459.646 14 458.578 14.3674 457.676 15.1023C456.782 15.8295 456.093 16.822 455.608 18.0795C455.123 19.3295 454.881 20.7424 454.881 22.3182ZM477.111 31.3636C476.156 31.3636 475.274 31.1667 474.463 30.7727C473.66 30.3788 473.012 29.803 472.52 29.0455C472.035 28.2879 471.793 27.3636 471.793 26.2727C471.793 25.6818 471.887 25.1288 472.077 24.6136C472.266 24.0909 472.599 23.6174 473.077 23.1932C473.554 22.7689 474.221 22.4053 475.077 22.1023C475.94 21.7992 477.043 21.5682 478.384 21.4091C479.187 21.3182 479.944 21.2121 480.656 21.0909C481.368 20.9697 481.948 20.7879 482.395 20.5455C482.842 20.303 483.065 19.9545 483.065 19.5V18.4545C483.065 17.1136 482.615 16.0379 481.713 15.2273C480.812 14.4091 479.611 14 478.111 14C476.884 14 475.812 14.2727 474.895 14.8182C473.978 15.3561 473.338 16.1136 472.974 17.0909L472.293 16.8182C472.565 16.0909 472.986 15.4621 473.554 14.9318C474.122 14.4015 474.796 13.9924 475.577 13.7045C476.357 13.4167 477.202 13.2727 478.111 13.2727C478.997 13.2727 479.789 13.4053 480.486 13.6705C481.19 13.928 481.789 14.2917 482.281 14.7614C482.774 15.2235 483.149 15.7689 483.406 16.3977C483.664 17.0265 483.793 17.7121 483.793 18.4545V31H483.065V27.4545H482.974C482.611 28.2424 482.137 28.9318 481.554 29.5227C480.978 30.1061 480.312 30.5606 479.554 30.8864C478.804 31.2045 477.99 31.3636 477.111 31.3636ZM477.111 30.6364C478.217 30.6364 479.221 30.3409 480.122 29.75C481.024 29.1515 481.74 28.322 482.27 27.2614C482.8 26.1932 483.065 24.9545 483.065 23.5455V20.9091C482.853 21.0682 482.596 21.2083 482.293 21.3295C481.997 21.4508 481.66 21.5606 481.281 21.6591C480.91 21.75 480.505 21.8295 480.065 21.8977C479.626 21.9659 479.156 22.0303 478.656 22.0909C477.096 22.2727 475.868 22.5492 474.974 22.9205C474.08 23.2917 473.448 23.7576 473.077 24.3182C472.705 24.8788 472.52 25.5303 472.52 26.2727C472.52 27.5909 472.959 28.6477 473.838 29.4432C474.724 30.2386 475.815 30.6364 477.111 30.6364ZM500.514 17.2273L499.787 17.4091C499.552 16.6515 499.223 16.0227 498.798 15.5227C498.382 15.0152 497.87 14.6364 497.264 14.3864C496.658 14.1288 495.954 14 495.151 14C493.757 14 492.628 14.3561 491.764 15.0682C490.901 15.7727 490.469 16.7045 490.469 17.8636C490.469 18.7803 490.76 19.5492 491.344 20.1705C491.935 20.7917 492.825 21.25 494.014 21.5455L496.741 22.2273C498.022 22.5455 498.991 23.0833 499.651 23.8409C500.317 24.5985 500.651 25.5152 500.651 26.5909C500.651 27.5379 500.401 28.3712 499.901 29.0909C499.408 29.8106 498.726 30.3712 497.855 30.7727C496.984 31.1667 495.976 31.3636 494.832 31.3636C493.279 31.3636 492.01 30.9848 491.026 30.2273C490.041 29.4697 489.401 28.3939 489.105 27L489.832 26.8182C490.09 28.053 490.639 29 491.48 29.6591C492.329 30.3106 493.446 30.6364 494.832 30.6364C496.348 30.6364 497.575 30.2652 498.514 29.5227C499.454 28.7803 499.923 27.803 499.923 26.5909C499.923 25.6894 499.643 24.928 499.082 24.3068C498.522 23.6856 497.681 23.2348 496.56 22.9545L493.832 22.2727C492.491 21.9394 491.473 21.3939 490.776 20.6364C490.086 19.8788 489.741 18.9545 489.741 17.8636C489.741 16.947 489.969 16.1477 490.423 15.4659C490.885 14.7765 491.522 14.2386 492.332 13.8523C493.151 13.4659 494.09 13.2727 495.151 13.2727C496.499 13.2727 497.624 13.6061 498.526 14.2727C499.427 14.9318 500.09 15.9167 500.514 17.2273ZM516.295 17.2273L515.568 17.4091C515.333 16.6515 515.004 16.0227 514.58 15.5227C514.163 15.0152 513.652 14.6364 513.045 14.3864C512.439 14.1288 511.735 14 510.932 14C509.538 14 508.409 14.3561 507.545 15.0682C506.682 15.7727 506.25 16.7045 506.25 17.8636C506.25 18.7803 506.542 19.5492 507.125 20.1705C507.716 20.7917 508.606 21.25 509.795 21.5455L512.523 22.2273C513.803 22.5455 514.773 23.0833 515.432 23.8409C516.098 24.5985 516.432 25.5152 516.432 26.5909C516.432 27.5379 516.182 28.3712 515.682 29.0909C515.189 29.8106 514.508 30.3712 513.636 30.7727C512.765 31.1667 511.758 31.3636 510.614 31.3636C509.061 31.3636 507.792 30.9848 506.807 30.2273C505.822 29.4697 505.182 28.3939 504.886 27L505.614 26.8182C505.871 28.053 506.42 29 507.261 29.6591C508.11 30.3106 509.227 30.6364 510.614 30.6364C512.129 30.6364 513.356 30.2652 514.295 29.5227C515.235 28.7803 515.705 27.803 515.705 26.5909C515.705 25.6894 515.424 24.928 514.864 24.3068C514.303 23.6856 513.462 23.2348 512.341 22.9545L509.614 22.2727C508.273 21.9394 507.254 21.3939 506.557 20.6364C505.867 19.8788 505.523 18.9545 505.523 17.8636C505.523 16.947 505.75 16.1477 506.205 15.4659C506.667 14.7765 507.303 14.2386 508.114 13.8523C508.932 13.4659 509.871 13.2727 510.932 13.2727C512.28 13.2727 513.405 13.6061 514.307 14.2727C515.208 14.9318 515.871 15.9167 516.295 17.2273ZM521.713 31V13.5455H522.44V31H521.713ZM522.077 10.3636C521.88 10.3636 521.709 10.2917 521.565 10.1477C521.421 10.0038 521.349 9.83333 521.349 9.63636C521.349 9.43939 521.421 9.26894 521.565 9.125C521.709 8.98106 521.88 8.90909 522.077 8.90909C522.274 8.90909 522.444 8.98106 522.588 9.125C522.732 9.26894 522.804 9.43939 522.804 9.63636C522.804 9.83333 522.732 10.0038 522.588 10.1477C522.444 10.2917 522.274 10.3636 522.077 10.3636ZM529.443 19.2727V31H528.716V13.5455H529.443V16.3182H529.534C529.943 15.4091 530.614 14.6818 531.545 14.1364C532.485 13.5909 533.557 13.3182 534.761 13.3182C535.928 13.3182 536.958 13.572 537.852 14.0795C538.746 14.5871 539.447 15.2879 539.955 16.1818C540.462 17.0758 540.716 18.1061 540.716 19.2727V31H539.989V19.2727C539.989 17.7273 539.504 16.4697 538.534 15.5C537.564 14.5303 536.307 14.0455 534.761 14.0455C533.731 14.0455 532.814 14.2689 532.011 14.7159C531.216 15.1629 530.587 15.7803 530.125 16.5682C529.67 17.3561 529.443 18.2576 529.443 19.2727ZM547.449 31V7.72727H548.176V18H548.267C548.57 17.0303 549.009 16.1932 549.585 15.4886C550.161 14.7765 550.839 14.2311 551.619 13.8523C552.4 13.4659 553.252 13.2727 554.176 13.2727C555.54 13.2727 556.725 13.6705 557.733 14.4659C558.741 15.2614 559.521 16.3409 560.074 17.7045C560.627 19.0682 560.903 20.6061 560.903 22.3182C560.903 24.0379 560.627 25.5795 560.074 26.9432C559.528 28.3068 558.752 29.3864 557.744 30.1818C556.744 30.9697 555.555 31.3636 554.176 31.3636C553.244 31.3636 552.388 31.1705 551.608 30.7841C550.835 30.3977 550.165 29.8523 549.597 29.1477C549.028 28.4356 548.585 27.5985 548.267 26.6364H548.176V31H547.449ZM548.176 22.3182C548.176 23.8939 548.419 25.3106 548.903 26.5682C549.388 27.8182 550.078 28.8106 550.972 29.5455C551.873 30.2727 552.941 30.6364 554.176 30.6364C555.411 30.6364 556.475 30.2727 557.369 29.5455C558.271 28.8106 558.964 27.8182 559.449 26.5682C559.934 25.3106 560.176 23.8939 560.176 22.3182C560.176 20.7424 559.93 19.3295 559.438 18.0795C558.953 16.822 558.259 15.8295 557.358 15.1023C556.464 14.3674 555.403 14 554.176 14C552.949 14 551.884 14.3674 550.983 15.1023C550.089 15.8295 549.396 16.822 548.903 18.0795C548.419 19.3295 548.176 20.7424 548.176 22.3182ZM572.21 31.3636C570.839 31.3636 569.608 30.9697 568.517 30.1818C567.426 29.3864 566.563 28.3068 565.926 26.9432C565.297 25.572 564.983 24.0303 564.983 22.3182C564.983 20.5985 565.297 19.0568 565.926 17.6932C566.563 16.3295 567.426 15.2538 568.517 14.4659C569.608 13.6705 570.839 13.2727 572.21 13.2727C573.581 13.2727 574.809 13.6705 575.892 14.4659C576.983 15.2614 577.847 16.3409 578.483 17.7045C579.119 19.0682 579.438 20.6061 579.438 22.3182C579.438 24.0303 579.119 25.572 578.483 26.9432C577.854 28.3068 576.994 29.3864 575.903 30.1818C574.813 30.9697 573.581 31.3636 572.21 31.3636ZM572.21 30.6364C573.445 30.6364 574.551 30.2727 575.528 29.5455C576.513 28.8182 577.29 27.8258 577.858 26.5682C578.426 25.3106 578.71 23.8939 578.71 22.3182C578.71 20.7424 578.422 19.3295 577.847 18.0795C577.278 16.822 576.506 15.8295 575.528 15.1023C574.551 14.3674 573.445 14 572.21 14C570.983 14 569.877 14.3674 568.892 15.1023C567.915 15.8295 567.138 16.822 566.562 18.0795C565.994 19.3295 565.71 20.7424 565.71 22.3182C565.71 23.8939 565.994 25.3106 566.562 26.5682C567.131 27.8258 567.903 28.8182 568.881 29.5455C569.866 30.2727 570.975 30.6364 572.21 30.6364ZM583.614 13.5455L588.75 21.6136L593.886 13.5455H594.75L589.182 22.2727L594.75 31H593.886L588.75 22.9318L583.614 31H582.75L588.318 22.2727L582.75 13.5455H583.614ZM600.795 31.1364C600.568 31.1364 600.375 31.0568 600.216 30.8977C600.057 30.7386 599.977 30.5455 599.977 30.3182C599.977 30.0909 600.057 29.8977 600.216 29.7386C600.375 29.5795 600.568 29.5 600.795 29.5C601.023 29.5 601.216 29.5795 601.375 29.7386C601.534 29.8977 601.614 30.0909 601.614 30.3182C601.614 30.4697 601.576 30.6098 601.5 30.7386C601.432 30.8598 601.333 30.9545 601.205 31.0227C601.083 31.0985 600.947 31.1364 600.795 31.1364ZM614.207 31.3636C612.798 31.3636 611.541 30.9697 610.435 30.1818C609.336 29.3864 608.469 28.3068 607.832 26.9432C607.204 25.5795 606.889 24.0379 606.889 22.3182C606.889 20.6136 607.204 19.0795 607.832 17.7159C608.461 16.3447 609.325 15.2614 610.423 14.4659C611.529 13.6705 612.791 13.2727 614.207 13.2727C615.253 13.2727 616.211 13.5 617.082 13.9545C617.961 14.4015 618.696 15.0303 619.287 15.8409C619.878 16.6439 620.26 17.5758 620.435 18.6364H619.662C619.427 17.2652 618.802 16.1515 617.787 15.2955C616.779 14.4318 615.586 14 614.207 14C612.957 14 611.832 14.3636 610.832 15.0909C609.84 15.8106 609.056 16.7992 608.48 18.0568C607.904 19.3068 607.616 20.7273 607.616 22.3182C607.616 23.8636 607.893 25.2652 608.446 26.5227C609.007 27.7803 609.783 28.7803 610.776 29.5227C611.768 30.2652 612.912 30.6364 614.207 30.6364C615.139 30.6364 615.995 30.4432 616.776 30.0568C617.556 29.6629 618.204 29.1098 618.719 28.3977C619.241 27.6856 619.571 26.8561 619.707 25.9091H620.48C620.313 27.0076 619.935 27.9659 619.344 28.7841C618.753 29.6023 618.014 30.2386 617.128 30.6932C616.241 31.1402 615.268 31.3636 614.207 31.3636ZM631.804 31.3636C630.433 31.3636 629.202 30.9697 628.111 30.1818C627.02 29.3864 626.156 28.3068 625.52 26.9432C624.891 25.572 624.577 24.0303 624.577 22.3182C624.577 20.5985 624.891 19.0568 625.52 17.6932C626.156 16.3295 627.02 15.2538 628.111 14.4659C629.202 13.6705 630.433 13.2727 631.804 13.2727C633.175 13.2727 634.402 13.6705 635.486 14.4659C636.577 15.2614 637.44 16.3409 638.077 17.7045C638.713 19.0682 639.031 20.6061 639.031 22.3182C639.031 24.0303 638.713 25.572 638.077 26.9432C637.448 28.3068 636.588 29.3864 635.497 30.1818C634.406 30.9697 633.175 31.3636 631.804 31.3636ZM631.804 30.6364C633.039 30.6364 634.145 30.2727 635.122 29.5455C636.107 28.8182 636.884 27.8258 637.452 26.5682C638.02 25.3106 638.304 23.8939 638.304 22.3182C638.304 20.7424 638.016 19.3295 637.44 18.0795C636.872 16.822 636.099 15.8295 635.122 15.1023C634.145 14.3674 633.039 14 631.804 14C630.577 14 629.471 14.3674 628.486 15.1023C627.509 15.8295 626.732 16.822 626.156 18.0795C625.588 19.3295 625.304 20.7424 625.304 22.3182C625.304 23.8939 625.588 25.3106 626.156 26.5682C626.724 27.8258 627.497 28.8182 628.474 29.5455C629.459 30.2727 630.569 30.6364 631.804 30.6364ZM644.153 31V13.5455H644.881V16.1364H644.972C645.29 15.2879 645.858 14.6061 646.676 14.0909C647.502 13.5758 648.494 13.3182 649.653 13.3182C650.972 13.3182 652.021 13.6439 652.801 14.2955C653.589 14.947 654.131 15.8182 654.426 16.9091H654.517C654.805 15.8182 655.388 14.947 656.267 14.2955C657.146 13.6439 658.244 13.3182 659.562 13.3182C661.312 13.3182 662.604 13.875 663.438 14.9886C664.278 16.0947 664.699 17.5227 664.699 19.2727V31H663.972V19.2727C663.972 17.7273 663.623 16.4697 662.926 15.5C662.229 14.5303 661.108 14.0455 659.562 14.0455C658.017 14.0455 656.835 14.5379 656.017 15.5227C655.199 16.5 654.79 17.75 654.79 19.2727V31H654.062V19.2727C654.062 17.7273 653.714 16.4697 653.017 15.5C652.32 14.5303 651.199 14.0455 649.653 14.0455C648.623 14.0455 647.752 14.2689 647.04 14.7159C646.335 15.1629 645.797 15.7803 645.426 16.5682C645.063 17.3561 644.881 18.2576 644.881 19.2727V31H644.153Z" fill="#181A1B"/>
</svg>
