<svg xmlns="http://www.w3.org/2000/svg" fill="#181A1B" viewBox="0 0 800 39">
    <path
        d="M258.969 16.417a.784.784 0 0 1-.781.781.782.782 0 1 1 .781-.78Zm-2.344 2.344a.78.78 0 0 0 .552-1.334.78.78 0 1 0-1.104 1.105.78.78 0 0 0 .552.229Zm3.906-.781a.78.78 0 0 1-1.333.552.78.78 0 0 1 .552-1.334.78.78 0 0 1 .781.782Zm-2.343 2.343a.781.781 0 1 0-.001-1.562.781.781 0 0 0 .001 1.563Zm-10.157-4.687h1.563v1.563h1.562v1.562h-1.562v1.563h-1.563V18.76h-1.562v-1.563h1.562v-1.562Z" />
    <path
        d="M245.767 12.094a.801.801 0 0 1-.02-.305.786.786 0 0 1 .573-.653l3.019-.81a.785.785 0 0 1 .847.315c.06.09.102.19.122.295a26.928 26.928 0 0 1 3.192-.183c1.125 0 2.255.064 3.313.197a.776.776 0 0 1 .65-.64.781.781 0 0 1 .322.016l3.018.81a.786.786 0 0 1 .519.452.783.783 0 0 1-.041.687c.219.14.416.297.583.464.638.637 1.219 1.64 1.711 2.769.5 1.145.936 2.486 1.258 3.853.322 1.367.531 2.781.569 4.072.037 1.275-.092 2.503-.513 3.453a2.216 2.216 0 0 1-2.258 1.297c-.993-.105-1.742-.616-2.364-1.208-.382-.363-.775-.822-1.154-1.263a33.426 33.426 0 0 0-.575-.66c-1.138-1.257-2.496-2.386-5.038-2.386-2.542 0-3.9 1.13-5.037 2.386-.186.204-.378.43-.575.66-.38.441-.772.899-1.155 1.263-.622.594-1.37 1.103-2.364 1.208a2.218 2.218 0 0 1-2.258-1.297c-.422-.95-.55-2.18-.514-3.453.038-1.29.25-2.703.57-4.072.322-1.367.76-2.708 1.258-3.853.492-1.128 1.074-2.131 1.71-2.769.204-.2.431-.376.676-.523a.758.758 0 0 1-.044-.122Zm3.182.644c-1.371.289-2.296.692-2.708 1.106-.431.431-.917 1.223-1.383 2.289a21.508 21.508 0 0 0-1.169 3.586 19.307 19.307 0 0 0-.529 3.76c-.035 1.179.096 2.137.379 2.774a.654.654 0 0 0 .666.375c.511-.053.953-.31 1.451-.784.332-.316.625-.661.961-1.053.208-.244.432-.505.688-.788 1.29-1.427 3.036-2.898 6.195-2.898 3.16 0 4.905 1.471 6.195 2.898.257.283.48.544.688.788.334.392.63.737.961 1.053.497.473.939.731 1.451.786a.66.66 0 0 0 .666-.377c.281-.637.414-1.594.38-2.775a19.309 19.309 0 0 0-.53-3.76 21.508 21.508 0 0 0-1.169-3.585c-.465-1.066-.953-1.86-1.382-2.29-.413-.413-1.338-.816-2.708-1.105-1.328-.28-2.933-.422-4.552-.422-1.619 0-3.223.142-4.551.421Zm34.506 18.626a5.973 5.973 0 0 1-2.648-.591 4.799 4.799 0 0 1-1.943-1.727c-.485-.758-.728-1.682-.728-2.773 0-.591.095-1.144.284-1.66.19-.522.523-.996 1-1.42.478-.424 1.144-.788 2-1.09.864-.304 1.966-.535 3.307-.694.803-.09 1.561-.197 2.273-.318.712-.121 1.292-.303 1.739-.546.447-.242.67-.59.67-1.045v-1.046c0-1.34-.451-2.416-1.352-3.227-.902-.818-2.102-1.227-3.602-1.227-1.228 0-2.3.273-3.216.818-.917.538-1.557 1.296-1.921 2.273l-.682-.273a4.907 4.907 0 0 1 1.262-1.886 5.937 5.937 0 0 1 2.022-1.228 7.272 7.272 0 0 1 2.535-.431c.886 0 1.678.132 2.375.398a5.098 5.098 0 0 1 1.795 1.09 4.63 4.63 0 0 1 1.125 1.637 5.36 5.36 0 0 1 .386 2.056V31h-.727v-3.546h-.091a7.217 7.217 0 0 1-1.42 2.069 6.264 6.264 0 0 1-2 1.363 6.194 6.194 0 0 1-2.443.478Zm0-.728a5.376 5.376 0 0 0 3.011-.886c.901-.599 1.617-1.428 2.148-2.489.53-1.068.795-2.306.795-3.715v-2.637c-.212.16-.47.3-.773.42a7.888 7.888 0 0 1-1.011.33c-.371.091-.777.17-1.216.239-.439.068-.909.132-1.409.193-1.561.182-2.788.458-3.682.83-.894.37-1.526.837-1.898 1.397-.371.56-.556 1.212-.556 1.955 0 1.318.439 2.375 1.318 3.17.886.796 1.977 1.193 3.273 1.193Zm12.948.364V13.546h.728v2.772h.091c.409-.909 1.079-1.636 2.011-2.182.939-.545 2.011-.818 3.216-.818h.363v.728h-.363c-1.03 0-1.947.223-2.75.67a4.98 4.98 0 0 0-1.887 1.852c-.454.788-.681 1.69-.681 2.705V31h-.728Zm16.955-17.454v.727h-6.909v-.727h6.909Zm-4.364-4.182h.728v17.954c0 .682.151 1.27.454 1.761.303.485.705.86 1.205 1.125a3.472 3.472 0 0 0 2.216.33c.189-.038.382-.095.579-.17l.227.681c-.227.084-.45.148-.67.194-.22.053-.466.08-.739.08a4.172 4.172 0 0 1-1.988-.49 3.84 3.84 0 0 1-1.466-1.386c-.364-.598-.546-1.307-.546-2.125V9.364Zm11.137 9.909V31h-.728V7.727h.728v8.591h.091c.409-.909 1.079-1.636 2.011-2.182.939-.545 2.011-.818 3.216-.818 1.167 0 2.197.254 3.091.761a5.497 5.497 0 0 1 2.102 2.103c.508.894.761 1.924.761 3.09V31h-.727V19.273c0-1.546-.485-2.803-1.454-3.773-.97-.97-2.228-1.454-3.773-1.454-1.03 0-1.947.223-2.75.67a4.98 4.98 0 0 0-1.887 1.852c-.454.788-.681 1.69-.681 2.705Zm28.733 6V13.546h.727V31h-.727v-2.773h-.091c-.409.91-1.084 1.637-2.023 2.182-.932.546-2 .818-3.205.818-1.166 0-2.197-.253-3.09-.761a5.499 5.499 0 0 1-2.103-2.102c-.507-.894-.761-1.925-.761-3.091V13.546h.727v11.727c0 1.545.485 2.803 1.455 3.773.969.97 2.227 1.454 3.772 1.454 1.031 0 1.944-.224 2.739-.67a4.866 4.866 0 0 0 1.886-1.853c.463-.788.694-1.69.694-2.704ZM355.778 31V13.546h.728v2.772h.091c.409-.909 1.079-1.636 2.011-2.182.939-.545 2.011-.818 3.216-.818h.364v.728h-.364c-1.03 0-1.947.223-2.75.67a4.97 4.97 0 0 0-1.886 1.852c-.455.788-.682 1.69-.682 2.705V31h-.728Zm20.861-13.773-.727.182c-.235-.758-.564-1.386-.989-1.886a3.856 3.856 0 0 0-1.534-1.137c-.606-.257-1.31-.386-2.113-.386-1.394 0-2.523.356-3.387 1.068-.863.705-1.295 1.636-1.295 2.796 0 .916.291 1.685.875 2.306.591.622 1.481 1.08 2.67 1.375l2.727.682c1.281.319 2.25.856 2.91 1.614.666.758 1 1.674 1 2.75 0 .947-.25 1.78-.75 2.5-.493.72-1.175 1.28-2.046 1.682-.871.394-1.879.59-3.023.59-1.553 0-2.822-.378-3.806-1.136-.985-.757-1.625-1.833-1.921-3.227l.727-.182c.258 1.235.807 2.182 1.648 2.841.849.652 1.966.977 3.352.977 1.516 0 2.743-.37 3.682-1.113.94-.743 1.409-1.72 1.409-2.932 0-.902-.28-1.663-.841-2.284-.56-.621-1.401-1.072-2.522-1.352l-2.728-.682c-1.341-.334-2.359-.88-3.056-1.637-.69-.757-1.035-1.681-1.035-2.772 0-.917.228-1.716.682-2.398.462-.69 1.099-1.227 1.909-1.614.819-.386 1.758-.58 2.819-.58 1.348 0 2.473.334 3.375 1 .901.66 1.564 1.645 1.988 2.955Zm11.872 14.137c-1.522 0-2.856-.398-4-1.194-1.136-.795-2.019-1.875-2.647-3.238-.629-1.364-.944-2.902-.944-4.614 0-1.712.315-3.25.944-4.614.636-1.363 1.5-2.443 2.591-3.238 1.09-.795 2.322-1.193 3.693-1.193 1.015 0 1.954.216 2.818.648a7.028 7.028 0 0 1 2.273 1.795 8.493 8.493 0 0 1 1.5 2.648c.363.992.545 2.053.545 3.181v.728h-14v-.727h13.273c0-1.402-.288-2.671-.864-3.807-.576-1.144-1.348-2.053-2.318-2.728A5.526 5.526 0 0 0 388.148 14a5.358 5.358 0 0 0-3.25 1.068c-.97.712-1.746 1.682-2.33 2.91-.583 1.226-.89 2.613-.92 4.158v.091c0 1.523.265 2.924.795 4.205.538 1.273 1.318 2.292 2.341 3.057 1.023.765 2.265 1.147 3.727 1.147 1.076 0 1.978-.189 2.705-.568.735-.379 1.322-.814 1.761-1.307.447-.492.777-.912.989-1.261l.591.41c-.258.439-.644.927-1.159 1.465s-1.175 1.004-1.978 1.398c-.803.394-1.772.59-2.909.59Zm17.833 6.545c-.978 0-1.879-.133-2.705-.398a5.843 5.843 0 0 1-2.136-1.17 4.721 4.721 0 0 1-1.341-1.932l.682-.273a4.171 4.171 0 0 0 1.182 1.694c.53.454 1.162.791 1.897 1.01a8.24 8.24 0 0 0 2.421.342c1.818 0 3.235-.481 4.25-1.443 1.015-.955 1.522-2.413 1.522-4.375v-4.728h-.09c-.303.97-.754 1.78-1.353 2.432a5.874 5.874 0 0 1-2.079 1.455 6.556 6.556 0 0 1-2.478.477c-1.363 0-2.549-.367-3.556-1.102-1.008-.735-1.788-1.754-2.341-3.057-.553-1.303-.83-2.81-.83-4.523 0-1.727.273-3.273.818-4.636.546-1.364 1.322-2.44 2.33-3.227 1.008-.788 2.201-1.182 3.579-1.182.94 0 1.796.193 2.569.58a5.857 5.857 0 0 1 2.011 1.636c.568.704 1.011 1.541 1.33 2.511h.09v-4.454h.728v17.818c0 1.431-.262 2.632-.784 3.602a5.117 5.117 0 0 1-2.239 2.204c-.97.493-2.129.74-3.477.74Zm-.228-7.636c1.213 0 2.266-.322 3.16-.966.901-.644 1.598-1.56 2.09-2.75.5-1.197.75-2.61.75-4.239 0-1.576-.242-2.989-.727-4.239-.485-1.257-1.178-2.25-2.079-2.977-.894-.735-1.959-1.102-3.194-1.102-1.234 0-2.303.367-3.204 1.102-.894.727-1.583 1.72-2.068 2.977-.485 1.25-.728 2.663-.728 4.24 0 1.575.243 2.961.728 4.158.492 1.19 1.185 2.122 2.079 2.796.902.666 1.966 1 3.193 1Zm17.37 1.09a5.976 5.976 0 0 1-2.648-.59 4.799 4.799 0 0 1-1.943-1.727c-.485-.758-.727-1.682-.727-2.773 0-.591.094-1.144.284-1.66.189-.522.522-.996 1-1.42.477-.424 1.144-.788 2-1.09.863-.304 1.966-.535 3.307-.694a40.48 40.48 0 0 0 2.272-.318c.712-.121 1.292-.303 1.739-.546.447-.242.67-.59.67-1.045v-1.046c0-1.34-.45-2.416-1.352-3.227-.901-.818-2.102-1.227-3.602-1.227-1.227 0-2.299.273-3.216.818-.917.538-1.557 1.296-1.921 2.273l-.681-.273a4.893 4.893 0 0 1 1.261-1.886 5.932 5.932 0 0 1 2.023-1.228 7.266 7.266 0 0 1 2.534-.431c.886 0 1.678.132 2.375.398a5.098 5.098 0 0 1 1.795 1.09 4.603 4.603 0 0 1 1.125 1.637c.258.628.387 1.314.387 2.056V31h-.728v-3.546h-.091a7.217 7.217 0 0 1-1.42 2.069 6.253 6.253 0 0 1-2 1.363 6.19 6.19 0 0 1-2.443.478Zm0-.727c1.106 0 2.11-.295 3.011-.886.902-.599 1.618-1.428 2.148-2.489.53-1.068.795-2.306.795-3.715v-2.637c-.212.16-.469.3-.772.42a7.958 7.958 0 0 1-1.012.33c-.371.091-.776.17-1.216.239-.439.068-.909.132-1.409.193-1.56.182-2.788.458-3.682.83-.894.37-1.526.837-1.897 1.397-.372.56-.557 1.212-.557 1.955 0 1.318.439 2.375 1.318 3.17.886.796 1.977 1.193 3.273 1.193Zm18.403-17.09v.727h-6.909v-.727h6.909Zm-4.363-4.182h.727v17.954c0 .682.151 1.27.454 1.761.303.485.705.86 1.205 1.125a3.473 3.473 0 0 0 2.216.33c.189-.038.382-.095.579-.17l.228.681a4.755 4.755 0 0 1-.671.194c-.219.053-.466.08-.738.08a4.176 4.176 0 0 1-1.989-.49 3.84 3.84 0 0 1-1.466-1.386c-.364-.598-.545-1.307-.545-2.125V9.364Zm16.028 22c-1.371 0-2.602-.394-3.693-1.182-1.091-.796-1.955-1.875-2.591-3.239-.629-1.371-.943-2.913-.943-4.625 0-1.72.314-3.261.943-4.625.636-1.364 1.5-2.44 2.591-3.227 1.091-.795 2.322-1.193 3.693-1.193s2.598.398 3.682 1.193c1.091.795 1.954 1.875 2.591 3.239.636 1.363.954 2.901.954 4.613 0 1.712-.318 3.254-.954 4.625-.629 1.364-1.489 2.443-2.58 3.239-1.091.788-2.322 1.182-3.693 1.182Zm0-.728a5.416 5.416 0 0 0 3.318-1.09c.985-.728 1.762-1.72 2.33-2.978.568-1.257.852-2.674.852-4.25s-.288-2.989-.864-4.239c-.568-1.257-1.341-2.25-2.318-2.977A5.378 5.378 0 0 0 453.554 14a5.412 5.412 0 0 0-3.318 1.102c-.977.727-1.754 1.72-2.33 2.977-.568 1.25-.852 2.663-.852 4.24 0 1.575.284 2.992.852 4.25.568 1.257 1.341 2.25 2.318 2.977a5.467 5.467 0 0 0 3.33 1.09Zm13.304.5a.792.792 0 0 1-.58-.238.789.789 0 0 1-.238-.58c0-.227.079-.42.238-.58a.792.792 0 0 1 .58-.238c.227 0 .42.08.58.239a.789.789 0 0 1 .238.58.812.812 0 0 1-.114.42.71.71 0 0 1-.295.284.756.756 0 0 1-.409.113Zm7.23-.136V13.546h.727V31h-.727Zm.364-20.636a.7.7 0 0 1-.512-.216.699.699 0 0 1-.216-.512c0-.197.072-.367.216-.511a.7.7 0 0 1 .512-.216c.197 0 .367.072.511.216a.699.699 0 0 1 .216.511.699.699 0 0 1-.216.512.698.698 0 0 1-.511.216Zm12.093 3.181v.728h-6.909v-.727h6.909Zm-4.363-4.181h.727v17.954c0 .682.152 1.27.455 1.761.303.485.704.86 1.204 1.125a3.473 3.473 0 0 0 2.216.33c.189-.038.383-.095.58-.17l.227.681a4.717 4.717 0 0 1-.671.194c-.219.053-.465.08-.738.08a4.179 4.179 0 0 1-1.989-.49 3.84 3.84 0 0 1-1.466-1.386c-.363-.598-.545-1.307-.545-2.125V9.364Zm16.119 22c-1.409 0-2.667-.394-3.773-1.182-1.098-.796-1.965-1.875-2.602-3.239-.629-1.364-.943-2.905-.943-4.625 0-1.704.314-3.239.943-4.602.629-1.371 1.493-2.455 2.591-3.25 1.106-.795 2.367-1.193 3.784-1.193 1.046 0 2.004.227 2.875.681a6.142 6.142 0 0 1 2.205 1.887c.591.803.973 1.735 1.147 2.795h-.772c-.235-1.37-.86-2.485-1.875-3.34-1.008-.864-2.201-1.296-3.58-1.296-1.25 0-2.375.364-3.375 1.09-.992.72-1.776 1.71-2.352 2.967-.576 1.25-.864 2.67-.864 4.261 0 1.546.277 2.947.83 4.205.56 1.257 1.337 2.257 2.329 3 .993.742 2.137 1.113 3.432 1.113.932 0 1.788-.193 2.568-.58a5.325 5.325 0 0 0 1.943-1.658c.523-.712.853-1.542.989-2.489h.773c-.167 1.099-.546 2.057-1.136 2.875a6.181 6.181 0 0 1-2.216 1.91c-.887.446-1.86.67-2.921.67Zm12.142-12.091V31h-.727V7.727h.727v8.591h.091c.409-.909 1.08-1.636 2.011-2.182.94-.545 2.012-.818 3.216-.818 1.167 0 2.197.254 3.091.761a5.5 5.5 0 0 1 2.103 2.103c.507.894.761 1.924.761 3.09V31h-.727V19.273c0-1.546-.485-2.803-1.455-3.773-.97-.97-2.227-1.454-3.773-1.454-1.03 0-1.947.223-2.75.67a4.977 4.977 0 0 0-1.886 1.852c-.455.788-.682 1.69-.682 2.705Zm18.415 11.863a.792.792 0 0 1-.58-.238.789.789 0 0 1-.238-.58c0-.227.079-.42.238-.58a.792.792 0 0 1 .58-.238c.227 0 .42.08.58.239a.789.789 0 0 1 .238.58.812.812 0 0 1-.114.42.71.71 0 0 1-.295.284.756.756 0 0 1-.409.113Zm7.23-.136V13.546h.727V31h-.727Zm.364-20.636a.7.7 0 0 1-.512-.216.699.699 0 0 1-.216-.512c0-.197.072-.367.216-.511a.7.7 0 0 1 .512-.216c.197 0 .367.072.511.216a.699.699 0 0 1 .216.511.699.699 0 0 1-.216.512.698.698 0 0 1-.511.216Zm12.821 21c-1.371 0-2.603-.394-3.693-1.182-1.091-.796-1.955-1.875-2.591-3.239-.629-1.371-.944-2.913-.944-4.625 0-1.72.315-3.261.944-4.625.636-1.364 1.5-2.44 2.591-3.227 1.09-.795 2.322-1.193 3.693-1.193s2.598.398 3.682 1.193c1.09.795 1.954 1.875 2.59 3.239.637 1.363.955 2.901.955 4.613 0 1.712-.318 3.254-.955 4.625-.628 1.364-1.488 2.443-2.579 3.239-1.091.788-2.322 1.182-3.693 1.182Zm0-.728a5.416 5.416 0 0 0 3.318-1.09c.985-.728 1.761-1.72 2.329-2.978.569-1.257.853-2.674.853-4.25s-.288-2.989-.864-4.239c-.568-1.257-1.341-2.25-2.318-2.977A5.378 5.378 0 0 0 549.273 14a5.407 5.407 0 0 0-3.318 1.102c-.978.727-1.754 1.72-2.33 2.977-.568 1.25-.852 2.663-.852 4.24 0 1.575.284 2.992.852 4.25.568 1.257 1.341 2.25 2.318 2.977a5.467 5.467 0 0 0 3.33 1.09Z" />
</svg>