<svg width="800" height="39" viewBox="0 0 800 39" fill="none" xmlns="http://www.w3.org/2000/svg">
<path d="M258.969 16.4172C258.969 16.6244 258.886 16.8232 258.74 16.9697C258.593 17.1162 258.395 17.1985 258.188 17.1985C257.98 17.1985 257.782 17.1162 257.635 16.9697C257.489 16.8232 257.406 16.6244 257.406 16.4172C257.406 16.21 257.489 16.0113 257.635 15.8648C257.782 15.7183 257.98 15.636 258.188 15.636C258.395 15.636 258.593 15.7183 258.74 15.8648C258.886 16.0113 258.969 16.21 258.969 16.4172ZM256.625 18.761C256.832 18.761 257.031 18.6787 257.177 18.5322C257.324 18.3857 257.406 18.1869 257.406 17.9797C257.406 17.7725 257.324 17.5738 257.177 17.4273C257.031 17.2808 256.832 17.1985 256.625 17.1985C256.418 17.1985 256.219 17.2808 256.073 17.4273C255.926 17.5738 255.844 17.7725 255.844 17.9797C255.844 18.1869 255.926 18.3857 256.073 18.5322C256.219 18.6787 256.418 18.761 256.625 18.761ZM260.531 17.9797C260.531 18.1869 260.449 18.3857 260.302 18.5322C260.156 18.6787 259.957 18.761 259.75 18.761C259.543 18.761 259.344 18.6787 259.198 18.5322C259.051 18.3857 258.969 18.1869 258.969 17.9797C258.969 17.7725 259.051 17.5738 259.198 17.4273C259.344 17.2808 259.543 17.1985 259.75 17.1985C259.957 17.1985 260.156 17.2808 260.302 17.4273C260.449 17.5738 260.531 17.7725 260.531 17.9797ZM258.188 20.3235C258.395 20.3235 258.593 20.2412 258.74 20.0947C258.886 19.9482 258.969 19.7494 258.969 19.5422C258.969 19.335 258.886 19.1363 258.74 18.9898C258.593 18.8433 258.395 18.761 258.188 18.761C257.98 18.761 257.782 18.8433 257.635 18.9898C257.489 19.1363 257.406 19.335 257.406 19.5422C257.406 19.7494 257.489 19.9482 257.635 20.0947C257.782 20.2412 257.98 20.3235 258.188 20.3235ZM248.031 15.636H249.594V17.1985H251.156V18.761H249.594V20.3235H248.031V18.761H246.469V17.1985H248.031V15.636Z" fill="#181A1B"/>
<path d="M245.767 12.0937C245.741 11.9945 245.734 11.891 245.747 11.7892C245.761 11.6873 245.794 11.5891 245.845 11.5001C245.897 11.4111 245.965 11.3332 246.047 11.2707C246.128 11.2082 246.221 11.1624 246.32 11.1359L249.339 10.3265C249.443 10.2989 249.551 10.2929 249.658 10.309C249.764 10.3251 249.865 10.363 249.956 10.4202C250.047 10.4773 250.125 10.5527 250.186 10.6414C250.246 10.7301 250.288 10.8304 250.308 10.9359C251.331 10.8125 252.417 10.7531 253.5 10.7531C254.625 10.7531 255.755 10.8172 256.813 10.95C256.831 10.8429 256.871 10.7407 256.931 10.6501C256.991 10.5595 257.07 10.4824 257.161 10.4237C257.252 10.365 257.355 10.3261 257.463 10.3094C257.57 10.2926 257.68 10.2985 257.785 10.3265L260.803 11.1359C260.918 11.1668 261.025 11.2235 261.115 11.3019C261.205 11.3803 261.275 11.4783 261.322 11.5882C261.368 11.6982 261.388 11.8172 261.381 11.9363C261.374 12.0553 261.34 12.1712 261.281 12.275C261.5 12.4156 261.697 12.5719 261.864 12.739C262.502 13.3765 263.083 14.3797 263.575 15.5078C264.075 16.6531 264.511 17.9937 264.833 19.3609C265.155 20.7281 265.364 22.1422 265.402 23.4328C265.439 24.7078 265.31 25.9359 264.889 26.8859C264.698 27.3124 264.376 27.6675 263.971 27.9004C263.565 28.1333 263.096 28.2321 262.631 28.1828C261.638 28.0781 260.889 27.5672 260.267 26.975C259.885 26.6125 259.492 26.1531 259.113 25.7125C258.916 25.4812 258.722 25.2562 258.538 25.0515C257.4 23.7953 256.042 22.6656 253.5 22.6656C250.958 22.6656 249.6 23.7953 248.463 25.0515C248.277 25.2562 248.085 25.4812 247.888 25.7125C247.508 26.1531 247.116 26.6109 246.733 26.975C246.111 27.5687 245.363 28.0781 244.369 28.1828C243.904 28.2321 243.435 28.1333 243.03 27.9004C242.624 27.6675 242.303 27.3124 242.111 26.8859C241.689 25.9359 241.561 24.7062 241.597 23.4328C241.635 22.1422 241.847 20.7297 242.167 19.3609C242.489 17.9937 242.927 16.6531 243.425 15.5078C243.917 14.3797 244.499 13.3765 245.135 12.739C245.339 12.5387 245.566 12.363 245.811 12.2156C245.793 12.1757 245.778 12.136 245.767 12.0937ZM248.949 12.7375C247.578 13.0265 246.653 13.4297 246.241 13.8437C245.81 14.275 245.324 15.0672 244.858 16.1328C244.364 17.2915 243.973 18.4915 243.689 19.7187C243.39 20.9514 243.212 22.2106 243.16 23.4781C243.125 24.6578 243.256 25.6156 243.539 26.2531C243.597 26.3773 243.692 26.4802 243.812 26.5475C243.931 26.6147 244.069 26.6429 244.205 26.6281C244.716 26.575 245.158 26.3172 245.656 25.8437C245.988 25.5281 246.281 25.1828 246.617 24.7906C246.825 24.5469 247.049 24.2859 247.305 24.0031C248.595 22.5765 250.341 21.1047 253.5 21.1047C256.66 21.1047 258.405 22.5765 259.695 24.0031C259.952 24.2859 260.175 24.5469 260.383 24.7906C260.717 25.1828 261.013 25.5281 261.344 25.8437C261.841 26.3172 262.283 26.575 262.795 26.6297C262.932 26.6443 263.069 26.6159 263.189 26.5484C263.308 26.4808 263.403 26.3776 263.461 26.2531C263.742 25.6156 263.875 24.6594 263.841 23.4781C263.788 22.2106 263.611 20.9514 263.311 19.7187C263.027 18.4915 262.636 17.2915 262.142 16.1328C261.677 15.0672 261.189 14.2734 260.76 13.8437C260.347 13.4297 259.422 13.0265 258.052 12.7375C256.724 12.4578 255.119 12.3156 253.5 12.3156C251.881 12.3156 250.277 12.4578 248.949 12.7375Z" fill="#181A1B"/>
<path d="M283.455 31.3636C282.5 31.3636 281.617 31.1667 280.807 30.7727C280.004 30.3788 279.356 29.803 278.864 29.0455C278.379 28.2879 278.136 27.3636 278.136 26.2727C278.136 25.6818 278.231 25.1288 278.42 24.6136C278.61 24.0909 278.943 23.6174 279.42 23.1932C279.898 22.7689 280.564 22.4053 281.42 22.1023C282.284 21.7992 283.386 21.5682 284.727 21.4091C285.53 21.3182 286.288 21.2121 287 21.0909C287.712 20.9697 288.292 20.7879 288.739 20.5455C289.186 20.303 289.409 19.9545 289.409 19.5V18.4545C289.409 17.1136 288.958 16.0379 288.057 15.2273C287.155 14.4091 285.955 14 284.455 14C283.227 14 282.155 14.2727 281.239 14.8182C280.322 15.3561 279.682 16.1136 279.318 17.0909L278.636 16.8182C278.909 16.0909 279.33 15.4621 279.898 14.9318C280.466 14.4015 281.14 13.9924 281.92 13.7045C282.701 13.4167 283.545 13.2727 284.455 13.2727C285.341 13.2727 286.133 13.4053 286.83 13.6705C287.534 13.928 288.133 14.2917 288.625 14.7614C289.117 15.2235 289.492 15.7689 289.75 16.3977C290.008 17.0265 290.136 17.7121 290.136 18.4545V31H289.409V27.4545H289.318C288.955 28.2424 288.481 28.9318 287.898 29.5227C287.322 30.1061 286.655 30.5606 285.898 30.8864C285.148 31.2045 284.333 31.3636 283.455 31.3636ZM283.455 30.6364C284.561 30.6364 285.564 30.3409 286.466 29.75C287.367 29.1515 288.083 28.322 288.614 27.2614C289.144 26.1932 289.409 24.9545 289.409 23.5455V20.9091C289.197 21.0682 288.939 21.2083 288.636 21.3295C288.341 21.4508 288.004 21.5606 287.625 21.6591C287.254 21.75 286.848 21.8295 286.409 21.8977C285.97 21.9659 285.5 22.0303 285 22.0909C283.439 22.2727 282.212 22.5492 281.318 22.9205C280.424 23.2917 279.792 23.7576 279.42 24.3182C279.049 24.8788 278.864 25.5303 278.864 26.2727C278.864 27.5909 279.303 28.6477 280.182 29.4432C281.068 30.2386 282.159 30.6364 283.455 30.6364ZM296.403 31V13.5455H297.131V16.3182H297.222C297.631 15.4091 298.301 14.6818 299.233 14.1364C300.172 13.5909 301.244 13.3182 302.449 13.3182C302.54 13.3182 302.6 13.3182 302.631 13.3182C302.661 13.3182 302.722 13.3182 302.812 13.3182V14.0455C302.722 14.0455 302.661 14.0455 302.631 14.0455C302.6 14.0455 302.54 14.0455 302.449 14.0455C301.419 14.0455 300.502 14.2689 299.699 14.7159C298.903 15.1629 298.275 15.7803 297.812 16.5682C297.358 17.3561 297.131 18.2576 297.131 19.2727V31H296.403ZM313.358 13.5455V14.2727H306.449V13.5455H313.358ZM308.994 9.36364H309.722V27.3182C309.722 28 309.873 28.5871 310.176 29.0795C310.479 29.5644 310.881 29.9394 311.381 30.2045C311.881 30.4621 312.419 30.5909 312.994 30.5909C313.214 30.5909 313.415 30.572 313.597 30.5341C313.786 30.4962 313.979 30.4394 314.176 30.3636L314.403 31.0455C314.176 31.1288 313.953 31.1932 313.733 31.2386C313.513 31.2917 313.267 31.3182 312.994 31.3182C312.282 31.3182 311.619 31.1553 311.006 30.8295C310.4 30.5038 309.911 30.0417 309.54 29.4432C309.176 28.8447 308.994 28.1364 308.994 27.3182V9.36364ZM320.131 19.2727V31H319.403V7.72727H320.131V16.3182H320.222C320.631 15.4091 321.301 14.6818 322.233 14.1364C323.172 13.5909 324.244 13.3182 325.449 13.3182C326.616 13.3182 327.646 13.572 328.54 14.0795C329.434 14.5871 330.134 15.2879 330.642 16.1818C331.15 17.0758 331.403 18.1061 331.403 19.2727V31H330.676V19.2727C330.676 17.7273 330.191 16.4697 329.222 15.5C328.252 14.5303 326.994 14.0455 325.449 14.0455C324.419 14.0455 323.502 14.2689 322.699 14.7159C321.903 15.1629 321.275 15.7803 320.812 16.5682C320.358 17.3561 320.131 18.2576 320.131 19.2727ZM348.864 25.2727V13.5455H349.591V31H348.864V28.2273H348.773C348.364 29.1364 347.689 29.8636 346.75 30.4091C345.818 30.9545 344.75 31.2273 343.545 31.2273C342.379 31.2273 341.348 30.9735 340.455 30.4659C339.561 29.9583 338.86 29.2576 338.352 28.3636C337.845 27.4697 337.591 26.4394 337.591 25.2727V13.5455H338.318V25.2727C338.318 26.8182 338.803 28.0758 339.773 29.0455C340.742 30.0152 342 30.5 343.545 30.5C344.576 30.5 345.489 30.2765 346.284 29.8295C347.087 29.3826 347.716 28.7652 348.17 27.9773C348.633 27.1894 348.864 26.2879 348.864 25.2727ZM355.778 31V13.5455H356.506V16.3182H356.597C357.006 15.4091 357.676 14.6818 358.608 14.1364C359.547 13.5909 360.619 13.3182 361.824 13.3182C361.915 13.3182 361.975 13.3182 362.006 13.3182C362.036 13.3182 362.097 13.3182 362.188 13.3182V14.0455C362.097 14.0455 362.036 14.0455 362.006 14.0455C361.975 14.0455 361.915 14.0455 361.824 14.0455C360.794 14.0455 359.877 14.2689 359.074 14.7159C358.278 15.1629 357.65 15.7803 357.188 16.5682C356.733 17.3561 356.506 18.2576 356.506 19.2727V31H355.778ZM376.639 17.2273L375.912 17.4091C375.677 16.6515 375.348 16.0227 374.923 15.5227C374.507 15.0152 373.995 14.6364 373.389 14.3864C372.783 14.1288 372.079 14 371.276 14C369.882 14 368.753 14.3561 367.889 15.0682C367.026 15.7727 366.594 16.7045 366.594 17.8636C366.594 18.7803 366.885 19.5492 367.469 20.1705C368.06 20.7917 368.95 21.25 370.139 21.5455L372.866 22.2273C374.147 22.5455 375.116 23.0833 375.776 23.8409C376.442 24.5985 376.776 25.5152 376.776 26.5909C376.776 27.5379 376.526 28.3712 376.026 29.0909C375.533 29.8106 374.851 30.3712 373.98 30.7727C373.109 31.1667 372.101 31.3636 370.957 31.3636C369.404 31.3636 368.135 30.9848 367.151 30.2273C366.166 29.4697 365.526 28.3939 365.23 27L365.957 26.8182C366.215 28.053 366.764 29 367.605 29.6591C368.454 30.3106 369.571 30.6364 370.957 30.6364C372.473 30.6364 373.7 30.2652 374.639 29.5227C375.579 28.7803 376.048 27.803 376.048 26.5909C376.048 25.6894 375.768 24.928 375.207 24.3068C374.647 23.6856 373.806 23.2348 372.685 22.9545L369.957 22.2727C368.616 21.9394 367.598 21.3939 366.901 20.6364C366.211 19.8788 365.866 18.9545 365.866 17.8636C365.866 16.947 366.094 16.1477 366.548 15.4659C367.01 14.7765 367.647 14.2386 368.457 13.8523C369.276 13.4659 370.215 13.2727 371.276 13.2727C372.624 13.2727 373.749 13.6061 374.651 14.2727C375.552 14.9318 376.215 15.9167 376.639 17.2273ZM388.511 31.3636C386.989 31.3636 385.655 30.9659 384.511 30.1705C383.375 29.375 382.492 28.2955 381.864 26.9318C381.235 25.5682 380.92 24.0303 380.92 22.3182C380.92 20.6061 381.235 19.0682 381.864 17.7045C382.5 16.3409 383.364 15.2614 384.455 14.4659C385.545 13.6705 386.777 13.2727 388.148 13.2727C389.163 13.2727 390.102 13.4886 390.966 13.9205C391.837 14.3523 392.595 14.9508 393.239 15.7159C393.883 16.4811 394.383 17.3636 394.739 18.3636C395.102 19.3561 395.284 20.4167 395.284 21.5455V22.2727H381.284V21.5455H394.557C394.557 20.1439 394.269 18.875 393.693 17.7386C393.117 16.5947 392.345 15.6856 391.375 15.0114C390.405 14.3371 389.33 14 388.148 14C386.951 14 385.867 14.3561 384.898 15.0682C383.928 15.7803 383.152 16.75 382.568 17.9773C381.985 19.2045 381.678 20.5909 381.648 22.1364V22.2273C381.648 23.75 381.913 25.1515 382.443 26.4318C382.981 27.7045 383.761 28.7235 384.784 29.4886C385.807 30.2538 387.049 30.6364 388.511 30.6364C389.587 30.6364 390.489 30.447 391.216 30.0682C391.951 29.6894 392.538 29.2538 392.977 28.7614C393.424 28.2689 393.754 27.8485 393.966 27.5L394.557 27.9091C394.299 28.3485 393.913 28.8371 393.398 29.375C392.883 29.9129 392.223 30.3788 391.42 30.7727C390.617 31.1667 389.648 31.3636 388.511 31.3636ZM406.344 37.9091C405.366 37.9091 404.465 37.7765 403.639 37.5114C402.813 37.2538 402.101 36.8636 401.503 36.3409C400.904 35.8258 400.457 35.1818 400.162 34.4091L400.844 34.1364C401.109 34.8182 401.503 35.3826 402.026 35.8295C402.556 36.2841 403.188 36.6212 403.923 36.8409C404.666 37.0682 405.473 37.1818 406.344 37.1818C408.162 37.1818 409.579 36.7008 410.594 35.7386C411.609 34.7841 412.116 33.3258 412.116 31.3636V26.6364H412.026C411.723 27.6061 411.272 28.4167 410.673 29.0682C410.075 29.7121 409.382 30.197 408.594 30.5227C407.806 30.8409 406.98 31 406.116 31C404.753 31 403.567 30.6326 402.56 29.8977C401.552 29.1629 400.772 28.1439 400.219 26.8409C399.666 25.5379 399.389 24.0303 399.389 22.3182C399.389 20.5909 399.662 19.0455 400.207 17.6818C400.753 16.3182 401.529 15.2424 402.537 14.4545C403.545 13.6667 404.738 13.2727 406.116 13.2727C407.056 13.2727 407.912 13.4659 408.685 13.8523C409.457 14.2311 410.128 14.7765 410.696 15.4886C411.264 16.1932 411.707 17.0303 412.026 18H412.116V13.5455H412.844V31.3636C412.844 32.7955 412.582 33.9962 412.06 34.9659C411.537 35.9432 410.791 36.678 409.821 37.1705C408.851 37.6629 407.692 37.9091 406.344 37.9091ZM406.116 30.2727C407.329 30.2727 408.382 29.9508 409.276 29.3068C410.177 28.6629 410.874 27.7462 411.366 26.5568C411.866 25.3598 412.116 23.947 412.116 22.3182C412.116 20.7424 411.874 19.3295 411.389 18.0795C410.904 16.822 410.211 15.8295 409.31 15.1023C408.416 14.3674 407.351 14 406.116 14C404.882 14 403.813 14.3674 402.912 15.1023C402.018 15.8295 401.329 16.822 400.844 18.0795C400.359 19.3295 400.116 20.7424 400.116 22.3182C400.116 23.8939 400.359 25.2803 400.844 26.4773C401.336 27.6667 402.029 28.5985 402.923 29.2727C403.825 29.9394 404.889 30.2727 406.116 30.2727ZM423.486 31.3636C422.531 31.3636 421.649 31.1667 420.838 30.7727C420.035 30.3788 419.387 29.803 418.895 29.0455C418.41 28.2879 418.168 27.3636 418.168 26.2727C418.168 25.6818 418.262 25.1288 418.452 24.6136C418.641 24.0909 418.974 23.6174 419.452 23.1932C419.929 22.7689 420.596 22.4053 421.452 22.1023C422.315 21.7992 423.418 21.5682 424.759 21.4091C425.562 21.3182 426.319 21.2121 427.031 21.0909C427.743 20.9697 428.323 20.7879 428.77 20.5455C429.217 20.303 429.44 19.9545 429.44 19.5V18.4545C429.44 17.1136 428.99 16.0379 428.088 15.2273C427.187 14.4091 425.986 14 424.486 14C423.259 14 422.187 14.2727 421.27 14.8182C420.353 15.3561 419.713 16.1136 419.349 17.0909L418.668 16.8182C418.94 16.0909 419.361 15.4621 419.929 14.9318C420.497 14.4015 421.171 13.9924 421.952 13.7045C422.732 13.4167 423.577 13.2727 424.486 13.2727C425.372 13.2727 426.164 13.4053 426.861 13.6705C427.565 13.928 428.164 14.2917 428.656 14.7614C429.149 15.2235 429.524 15.7689 429.781 16.3977C430.039 17.0265 430.168 17.7121 430.168 18.4545V31H429.44V27.4545H429.349C428.986 28.2424 428.512 28.9318 427.929 29.5227C427.353 30.1061 426.687 30.5606 425.929 30.8864C425.179 31.2045 424.365 31.3636 423.486 31.3636ZM423.486 30.6364C424.592 30.6364 425.596 30.3409 426.497 29.75C427.399 29.1515 428.115 28.322 428.645 27.2614C429.175 26.1932 429.44 24.9545 429.44 23.5455V20.9091C429.228 21.0682 428.971 21.2083 428.668 21.3295C428.372 21.4508 428.035 21.5606 427.656 21.6591C427.285 21.75 426.88 21.8295 426.44 21.8977C426.001 21.9659 425.531 22.0303 425.031 22.0909C423.471 22.2727 422.243 22.5492 421.349 22.9205C420.455 23.2917 419.823 23.7576 419.452 24.3182C419.08 24.8788 418.895 25.5303 418.895 26.2727C418.895 27.5909 419.334 28.6477 420.213 29.4432C421.099 30.2386 422.19 30.6364 423.486 30.6364ZM441.889 13.5455V14.2727H434.98V13.5455H441.889ZM437.526 9.36364H438.253V27.3182C438.253 28 438.404 28.5871 438.707 29.0795C439.01 29.5644 439.412 29.9394 439.912 30.2045C440.412 30.4621 440.95 30.5909 441.526 30.5909C441.745 30.5909 441.946 30.572 442.128 30.5341C442.317 30.4962 442.51 30.4394 442.707 30.3636L442.935 31.0455C442.707 31.1288 442.484 31.1932 442.264 31.2386C442.045 31.2917 441.798 31.3182 441.526 31.3182C440.813 31.3182 440.151 31.1553 439.537 30.8295C438.931 30.5038 438.442 30.0417 438.071 29.4432C437.707 28.8447 437.526 28.1364 437.526 27.3182V9.36364ZM453.554 31.3636C452.183 31.3636 450.952 30.9697 449.861 30.1818C448.77 29.3864 447.906 28.3068 447.27 26.9432C446.641 25.572 446.327 24.0303 446.327 22.3182C446.327 20.5985 446.641 19.0568 447.27 17.6932C447.906 16.3295 448.77 15.2538 449.861 14.4659C450.952 13.6705 452.183 13.2727 453.554 13.2727C454.925 13.2727 456.152 13.6705 457.236 14.4659C458.327 15.2614 459.19 16.3409 459.827 17.7045C460.463 19.0682 460.781 20.6061 460.781 22.3182C460.781 24.0303 460.463 25.572 459.827 26.9432C459.198 28.3068 458.338 29.3864 457.247 30.1818C456.156 30.9697 454.925 31.3636 453.554 31.3636ZM453.554 30.6364C454.789 30.6364 455.895 30.2727 456.872 29.5455C457.857 28.8182 458.634 27.8258 459.202 26.5682C459.77 25.3106 460.054 23.8939 460.054 22.3182C460.054 20.7424 459.766 19.3295 459.19 18.0795C458.622 16.822 457.849 15.8295 456.872 15.1023C455.895 14.3674 454.789 14 453.554 14C452.327 14 451.221 14.3674 450.236 15.1023C449.259 15.8295 448.482 16.822 447.906 18.0795C447.338 19.3295 447.054 20.7424 447.054 22.3182C447.054 23.8939 447.338 25.3106 447.906 26.5682C448.474 27.8258 449.247 28.8182 450.224 29.5455C451.209 30.2727 452.319 30.6364 453.554 30.6364ZM466.858 31.1364C466.631 31.1364 466.438 31.0568 466.278 30.8977C466.119 30.7386 466.04 30.5455 466.04 30.3182C466.04 30.0909 466.119 29.8977 466.278 29.7386C466.438 29.5795 466.631 29.5 466.858 29.5C467.085 29.5 467.278 29.5795 467.438 29.7386C467.597 29.8977 467.676 30.0909 467.676 30.3182C467.676 30.4697 467.638 30.6098 467.562 30.7386C467.494 30.8598 467.396 30.9545 467.267 31.0227C467.146 31.0985 467.009 31.1364 466.858 31.1364ZM474.088 31V13.5455H474.815V31H474.088ZM474.452 10.3636C474.255 10.3636 474.084 10.2917 473.94 10.1477C473.796 10.0038 473.724 9.83333 473.724 9.63636C473.724 9.43939 473.796 9.26894 473.94 9.125C474.084 8.98106 474.255 8.90909 474.452 8.90909C474.649 8.90909 474.819 8.98106 474.963 9.125C475.107 9.26894 475.179 9.43939 475.179 9.63636C475.179 9.83333 475.107 10.0038 474.963 10.1477C474.819 10.2917 474.649 10.3636 474.452 10.3636ZM486.545 13.5455V14.2727H479.636V13.5455H486.545ZM482.182 9.36364H482.909V27.3182C482.909 28 483.061 28.5871 483.364 29.0795C483.667 29.5644 484.068 29.9394 484.568 30.2045C485.068 30.4621 485.606 30.5909 486.182 30.5909C486.402 30.5909 486.602 30.572 486.784 30.5341C486.973 30.4962 487.167 30.4394 487.364 30.3636L487.591 31.0455C487.364 31.1288 487.14 31.1932 486.92 31.2386C486.701 31.2917 486.455 31.3182 486.182 31.3182C485.47 31.3182 484.807 31.1553 484.193 30.8295C483.587 30.5038 483.098 30.0417 482.727 29.4432C482.364 28.8447 482.182 28.1364 482.182 27.3182V9.36364ZM498.301 31.3636C496.892 31.3636 495.634 30.9697 494.528 30.1818C493.43 29.3864 492.563 28.3068 491.926 26.9432C491.297 25.5795 490.983 24.0379 490.983 22.3182C490.983 20.6136 491.297 19.0795 491.926 17.7159C492.555 16.3447 493.419 15.2614 494.517 14.4659C495.623 13.6705 496.884 13.2727 498.301 13.2727C499.347 13.2727 500.305 13.5 501.176 13.9545C502.055 14.4015 502.79 15.0303 503.381 15.8409C503.972 16.6439 504.354 17.5758 504.528 18.6364H503.756C503.521 17.2652 502.896 16.1515 501.881 15.2955C500.873 14.4318 499.68 14 498.301 14C497.051 14 495.926 14.3636 494.926 15.0909C493.934 15.8106 493.15 16.7992 492.574 18.0568C491.998 19.3068 491.71 20.7273 491.71 22.3182C491.71 23.8636 491.987 25.2652 492.54 26.5227C493.1 27.7803 493.877 28.7803 494.869 29.5227C495.862 30.2652 497.006 30.6364 498.301 30.6364C499.233 30.6364 500.089 30.4432 500.869 30.0568C501.65 29.6629 502.297 29.1098 502.812 28.3977C503.335 27.6856 503.665 26.8561 503.801 25.9091H504.574C504.407 27.0076 504.028 27.9659 503.438 28.7841C502.847 29.6023 502.108 30.2386 501.222 30.6932C500.335 31.1402 499.362 31.3636 498.301 31.3636ZM510.443 19.2727V31H509.716V7.72727H510.443V16.3182H510.534C510.943 15.4091 511.614 14.6818 512.545 14.1364C513.485 13.5909 514.557 13.3182 515.761 13.3182C516.928 13.3182 517.958 13.572 518.852 14.0795C519.746 14.5871 520.447 15.2879 520.955 16.1818C521.462 17.0758 521.716 18.1061 521.716 19.2727V31H520.989V19.2727C520.989 17.7273 520.504 16.4697 519.534 15.5C518.564 14.5303 517.307 14.0455 515.761 14.0455C514.731 14.0455 513.814 14.2689 513.011 14.7159C512.216 15.1629 511.587 15.7803 511.125 16.5682C510.67 17.3561 510.443 18.2576 510.443 19.2727ZM528.858 31.1364C528.631 31.1364 528.438 31.0568 528.278 30.8977C528.119 30.7386 528.04 30.5455 528.04 30.3182C528.04 30.0909 528.119 29.8977 528.278 29.7386C528.438 29.5795 528.631 29.5 528.858 29.5C529.085 29.5 529.278 29.5795 529.438 29.7386C529.597 29.8977 529.676 30.0909 529.676 30.3182C529.676 30.4697 529.638 30.6098 529.562 30.7386C529.494 30.8598 529.396 30.9545 529.267 31.0227C529.146 31.0985 529.009 31.1364 528.858 31.1364ZM536.088 31V13.5455H536.815V31H536.088ZM536.452 10.3636C536.255 10.3636 536.084 10.2917 535.94 10.1477C535.796 10.0038 535.724 9.83333 535.724 9.63636C535.724 9.43939 535.796 9.26894 535.94 9.125C536.084 8.98106 536.255 8.90909 536.452 8.90909C536.649 8.90909 536.819 8.98106 536.963 9.125C537.107 9.26894 537.179 9.43939 537.179 9.63636C537.179 9.83333 537.107 10.0038 536.963 10.1477C536.819 10.2917 536.649 10.3636 536.452 10.3636ZM549.273 31.3636C547.902 31.3636 546.67 30.9697 545.58 30.1818C544.489 29.3864 543.625 28.3068 542.989 26.9432C542.36 25.572 542.045 24.0303 542.045 22.3182C542.045 20.5985 542.36 19.0568 542.989 17.6932C543.625 16.3295 544.489 15.2538 545.58 14.4659C546.67 13.6705 547.902 13.2727 549.273 13.2727C550.644 13.2727 551.871 13.6705 552.955 14.4659C554.045 15.2614 554.909 16.3409 555.545 17.7045C556.182 19.0682 556.5 20.6061 556.5 22.3182C556.5 24.0303 556.182 25.572 555.545 26.9432C554.917 28.3068 554.057 29.3864 552.966 30.1818C551.875 30.9697 550.644 31.3636 549.273 31.3636ZM549.273 30.6364C550.508 30.6364 551.614 30.2727 552.591 29.5455C553.576 28.8182 554.352 27.8258 554.92 26.5682C555.489 25.3106 555.773 23.8939 555.773 22.3182C555.773 20.7424 555.485 19.3295 554.909 18.0795C554.341 16.822 553.568 15.8295 552.591 15.1023C551.614 14.3674 550.508 14 549.273 14C548.045 14 546.939 14.3674 545.955 15.1023C544.977 15.8295 544.201 16.822 543.625 18.0795C543.057 19.3295 542.773 20.7424 542.773 22.3182C542.773 23.8939 543.057 25.3106 543.625 26.5682C544.193 27.8258 544.966 28.8182 545.943 29.5455C546.928 30.2727 548.038 30.6364 549.273 30.6364Z" fill="#181A1B"/>
</svg>
