<svg width="800" height="244" viewBox="0 0 800 244" fill="none" xmlns="http://www.w3.org/2000/svg">
<g clip-path="url(#clip0_218_93)">
<path d="M437.5 74.9999L421.172 42.345C412.845 48.8415 409.685 62.8012 406.151 77.2717L418.75 106.5L428.504 129.129C435.418 119.922 443.24 108.439 448.931 97.8637L437.5 74.9999Z" fill="#181A1B"/>
<path d="M367.73 108.145C375.802 108.145 381.072 104.225 384.879 98.0827L390.214 85.7047C396.325 66.3645 398.46 39.9172 414.591 29.1817L400 0L362.5 75L350.265 99.471C354.738 105.367 360.917 108.145 367.73 108.145Z" fill="#181A1B"/>
<path d="M455.114 110.229C448.429 121.498 440.468 132.844 433.812 141.445L437.5 150H475L455.114 110.229Z" fill="#181A1B"/>
<path d="M368.118 122.336C359 122.336 350.447 119.11 343.835 112.33L325 150H362.5L374.649 121.814C372.62 122.156 370.448 122.336 368.118 122.336Z" fill="#181A1B"/>
</g>
<g clip-path="url(#clip1_218_93)">
<path d="M335.391 159.461L325.117 187H323.965L334.609 158.562H335.625L335.391 159.461ZM345.391 187L335.117 159.461L334.902 158.562H335.898L346.543 187H345.391ZM342.383 177.449V178.504H328.145V177.449H342.383ZM351.035 158.562H360.098C361.908 158.562 363.516 158.882 364.922 159.52C366.328 160.145 367.428 161.069 368.223 162.293C369.03 163.504 369.434 164.995 369.434 166.766C369.434 168.146 369.134 169.396 368.535 170.516C367.936 171.622 367.135 172.534 366.133 173.25C365.13 173.966 364.01 174.415 362.773 174.598L362.168 174.832H351.289L351.25 173.777H361.055C362.682 173.777 364.036 173.439 365.117 172.762C366.198 172.085 367.012 171.212 367.559 170.145C368.105 169.064 368.379 167.938 368.379 166.766C368.379 165.268 368.04 163.992 367.363 162.938C366.686 161.87 365.723 161.049 364.473 160.477C363.236 159.904 361.777 159.617 360.098 159.617H352.09V187H351.035V158.562ZM369.512 187L361.719 174.461L362.949 174.422L370.625 186.727V187H369.512ZM384.316 158.562V187H383.262V158.562H384.316ZM394.668 158.562V159.617H372.91V158.562H394.668ZM419.316 171.844V172.898H400.176V171.844H419.316ZM400.703 158.562V187H399.648V158.562H400.703ZM419.922 158.562V187H418.867V158.562H419.922ZM445.82 158.562H446.875V177.84C446.875 179.962 446.452 181.733 445.605 183.152C444.759 184.572 443.6 185.633 442.129 186.336C440.671 187.039 439.017 187.391 437.168 187.391C435.319 187.391 433.659 187.039 432.188 186.336C430.729 185.633 429.57 184.572 428.711 183.152C427.865 181.733 427.441 179.962 427.441 177.84V158.562H428.496V177.84C428.496 179.663 428.874 181.212 429.629 182.488C430.397 183.751 431.432 184.708 432.734 185.359C434.049 186.01 435.527 186.336 437.168 186.336C438.809 186.336 440.28 186.01 441.582 185.359C442.897 184.708 443.932 183.751 444.688 182.488C445.443 181.212 445.82 179.663 445.82 177.84V158.562ZM454.316 158.562H463.379C465.189 158.562 466.797 158.882 468.203 159.52C469.609 160.145 470.71 161.069 471.504 162.293C472.311 163.504 472.715 164.995 472.715 166.766C472.715 168.146 472.415 169.396 471.816 170.516C471.217 171.622 470.417 172.534 469.414 173.25C468.411 173.966 467.292 174.415 466.055 174.598L465.449 174.832H454.57L454.531 173.777H464.336C465.964 173.777 467.318 173.439 468.398 172.762C469.479 172.085 470.293 171.212 470.84 170.145C471.387 169.064 471.66 167.938 471.66 166.766C471.66 165.268 471.322 163.992 470.645 162.938C469.967 161.87 469.004 161.049 467.754 160.477C466.517 159.904 465.059 159.617 463.379 159.617H455.371V187H454.316V158.562ZM472.793 187L465 174.461L466.23 174.422L473.906 186.727V187H472.793Z" fill="#181A1B"/>
<path d="M340.859 226.441C340.859 225.999 340.794 225.602 340.664 225.25C340.534 224.885 340.293 224.547 339.941 224.234C339.59 223.922 339.082 223.609 338.418 223.297C337.767 222.971 336.908 222.633 335.84 222.281C334.59 221.865 333.385 221.396 332.227 220.875C331.068 220.341 330.033 219.723 329.121 219.02C328.21 218.303 327.487 217.47 326.953 216.52C326.419 215.556 326.152 214.436 326.152 213.16C326.152 211.936 326.426 210.836 326.973 209.859C327.52 208.87 328.281 208.03 329.258 207.34C330.247 206.637 331.406 206.103 332.734 205.738C334.062 205.361 335.514 205.172 337.09 205.172C339.173 205.172 341.009 205.536 342.598 206.266C344.199 206.982 345.449 208.004 346.348 209.332C347.259 210.647 347.715 212.203 347.715 214H340.898C340.898 213.284 340.749 212.652 340.449 212.105C340.163 211.559 339.727 211.129 339.141 210.816C338.555 210.504 337.819 210.348 336.934 210.348C336.074 210.348 335.352 210.478 334.766 210.738C334.18 210.999 333.737 211.35 333.438 211.793C333.138 212.223 332.988 212.698 332.988 213.219C332.988 213.648 333.105 214.039 333.34 214.391C333.587 214.729 333.932 215.048 334.375 215.348C334.831 215.647 335.378 215.934 336.016 216.207C336.667 216.48 337.396 216.747 338.203 217.008C339.714 217.49 341.055 218.03 342.227 218.629C343.411 219.215 344.408 219.885 345.215 220.641C346.035 221.383 346.654 222.229 347.07 223.18C347.5 224.13 347.715 225.204 347.715 226.402C347.715 227.678 347.467 228.811 346.973 229.801C346.478 230.79 345.768 231.63 344.844 232.32C343.919 232.997 342.812 233.512 341.523 233.863C340.234 234.215 338.796 234.391 337.207 234.391C335.749 234.391 334.31 234.208 332.891 233.844C331.484 233.466 330.208 232.893 329.062 232.125C327.917 231.344 326.999 230.348 326.309 229.137C325.632 227.913 325.293 226.461 325.293 224.781H332.168C332.168 225.615 332.279 226.318 332.5 226.891C332.721 227.464 333.047 227.926 333.477 228.277C333.906 228.616 334.434 228.863 335.059 229.02C335.684 229.163 336.4 229.234 337.207 229.234C338.079 229.234 338.783 229.111 339.316 228.863C339.85 228.603 340.241 228.264 340.488 227.848C340.736 227.418 340.859 226.949 340.859 226.441ZM370.82 228.727V234H355.664V228.727H370.82ZM358.105 205.562V234H351.25V205.562H358.105ZM368.867 216.852V221.949H355.664V216.852H368.867ZM370.879 205.562V210.855H355.664V205.562H370.879ZM396.895 218.805V230.484C396.413 231.018 395.671 231.591 394.668 232.203C393.678 232.802 392.428 233.316 390.918 233.746C389.408 234.176 387.63 234.391 385.586 234.391C383.698 234.391 381.986 234.091 380.449 233.492C378.913 232.88 377.591 231.988 376.484 230.816C375.391 229.632 374.544 228.186 373.945 226.48C373.359 224.762 373.066 222.796 373.066 220.582V219C373.066 216.786 373.366 214.82 373.965 213.102C374.564 211.383 375.404 209.938 376.484 208.766C377.578 207.581 378.861 206.682 380.332 206.07C381.816 205.458 383.444 205.152 385.215 205.152C387.832 205.152 389.961 205.569 391.602 206.402C393.242 207.223 394.486 208.362 395.332 209.82C396.178 211.266 396.693 212.939 396.875 214.84H390.293C390.163 213.902 389.915 213.108 389.551 212.457C389.199 211.793 388.691 211.292 388.027 210.953C387.363 210.602 386.504 210.426 385.449 210.426C384.629 210.426 383.88 210.602 383.203 210.953C382.539 211.305 381.973 211.839 381.504 212.555C381.035 213.258 380.671 214.143 380.41 215.211C380.163 216.279 380.039 217.529 380.039 218.961V220.582C380.039 222.001 380.156 223.245 380.391 224.312C380.638 225.38 381.003 226.272 381.484 226.988C381.979 227.691 382.604 228.225 383.359 228.59C384.128 228.941 385.033 229.117 386.074 229.117C386.803 229.117 387.428 229.059 387.949 228.941C388.47 228.811 388.9 228.655 389.238 228.473C389.59 228.277 389.857 228.095 390.039 227.926V223.512H385.273V218.805H396.895ZM412.949 211.539L406.016 234H398.652L409.102 205.562H413.77L412.949 211.539ZM418.691 234L411.738 211.539L410.84 205.562H415.566L426.074 234H418.691ZM418.418 223.395V228.688H403.828V223.395H418.418ZM439.59 205.562V234H432.734V205.562H439.59ZM448.145 205.562V210.855H424.375V205.562H448.145ZM474.57 219.215V220.367C474.57 222.542 474.264 224.495 473.652 226.227C473.053 227.945 472.201 229.417 471.094 230.641C469.987 231.852 468.678 232.783 467.168 233.434C465.658 234.072 463.991 234.391 462.168 234.391C460.332 234.391 458.652 234.072 457.129 233.434C455.618 232.783 454.303 231.852 453.184 230.641C452.077 229.417 451.217 227.945 450.605 226.227C450.007 224.495 449.707 222.542 449.707 220.367V219.215C449.707 217.04 450.007 215.087 450.605 213.355C451.217 211.624 452.07 210.152 453.164 208.941C454.271 207.717 455.579 206.786 457.09 206.148C458.613 205.497 460.293 205.172 462.129 205.172C463.952 205.172 465.618 205.497 467.129 206.148C468.652 206.786 469.967 207.717 471.074 208.941C472.181 210.152 473.04 211.624 473.652 213.355C474.264 215.087 474.57 217.04 474.57 219.215ZM467.617 220.367V219.176C467.617 217.77 467.493 216.533 467.246 215.465C467.012 214.384 466.66 213.479 466.191 212.75C465.723 212.021 465.143 211.474 464.453 211.109C463.776 210.732 463.001 210.543 462.129 210.543C461.217 210.543 460.423 210.732 459.746 211.109C459.069 211.474 458.503 212.021 458.047 212.75C457.591 213.479 457.246 214.384 457.012 215.465C456.79 216.533 456.68 217.77 456.68 219.176V220.367C456.68 221.76 456.79 222.997 457.012 224.078C457.246 225.146 457.591 226.051 458.047 226.793C458.516 227.535 459.089 228.095 459.766 228.473C460.456 228.85 461.257 229.039 462.168 229.039C463.04 229.039 463.815 228.85 464.492 228.473C465.169 228.095 465.736 227.535 466.191 226.793C466.66 226.051 467.012 225.146 467.246 224.078C467.493 222.997 467.617 221.76 467.617 220.367Z" fill="#181A1B"/>
</g>
<defs>
<clipPath id="clip0_218_93">
<rect width="150" height="150" fill="white" transform="translate(325)"/>
</clipPath>
<clipPath id="clip1_218_93">
<rect width="154" height="94" fill="white" transform="translate(323 150)"/>
</clipPath>
</defs>
</svg>
