<svg xmlns="http://www.w3.org/2000/svg" fill="#181A1B" viewBox="0 0 800 244">
    <g>
        <path
            d="m437.5 75-16.328-32.655c-8.327 6.497-11.487 20.456-15.021 34.927L418.75 106.5l9.754 22.629c6.914-9.207 14.736-20.69 20.427-31.265L437.5 75ZM367.73 108.145c8.072 0 13.342-3.92 17.149-10.062l5.335-12.378c6.111-19.34 8.246-45.788 24.377-56.523L400 0l-37.5 75-12.235 24.471c4.473 5.896 10.652 8.674 17.465 8.674ZM455.114 110.229c-6.685 11.269-14.646 22.615-21.302 31.216L437.5 150H475l-19.886-39.771ZM368.118 122.336c-9.118 0-17.671-3.226-24.283-10.006L325 150h37.5l12.149-28.186a39.244 39.244 0 0 1-6.531.522Z" />
    </g>
    <g>
        <path
            d="M335.391 159.461 325.117 187h-1.152l10.644-28.438h1.016l-.234.899Zm10 27.539-10.274-27.539-.215-.899h.996L346.543 187h-1.152Zm-3.008-9.551v1.055h-14.238v-1.055h14.238Zm8.652-18.887h9.063c1.81 0 3.418.32 4.824.958 1.406.625 2.506 1.549 3.301 2.773.807 1.211 1.211 2.702 1.211 4.473 0 1.38-.3 2.63-.899 3.75a7.986 7.986 0 0 1-2.402 2.734 7.618 7.618 0 0 1-3.36 1.348l-.605.234h-10.879l-.039-1.055h9.805c1.627 0 2.981-.338 4.062-1.015 1.081-.677 1.895-1.55 2.442-2.617a7.403 7.403 0 0 0 .82-3.379c0-1.498-.339-2.774-1.016-3.828-.677-1.068-1.64-1.889-2.89-2.461-1.237-.573-2.696-.86-4.375-.86h-8.008V187h-1.055v-28.438ZM369.512 187l-7.793-12.539 1.23-.039 7.676 12.305V187h-1.113Zm14.804-28.438V187h-1.054v-28.438h1.054Zm10.352 0v1.055H372.91v-1.055h21.758Zm24.648 13.282v1.054h-19.14v-1.054h19.14Zm-18.613-13.282V187h-1.055v-28.438h1.055Zm19.219 0V187h-1.055v-28.438h1.055Zm25.898 0h1.055v19.278c0 2.122-.423 3.893-1.27 5.312a7.968 7.968 0 0 1-3.476 3.184c-1.458.703-3.112 1.055-4.961 1.055-1.849 0-3.509-.352-4.98-1.055-1.459-.703-2.618-1.764-3.477-3.184-.846-1.419-1.27-3.19-1.27-5.312v-19.278h1.055v19.278c0 1.823.378 3.372 1.133 4.648a7.495 7.495 0 0 0 3.105 2.871c1.315.651 2.793.977 4.434.977s3.112-.326 4.414-.977a7.35 7.35 0 0 0 3.106-2.871c.755-1.276 1.132-2.825 1.132-4.648v-19.278Zm8.496 0h9.063c1.81 0 3.418.32 4.824.958 1.406.625 2.507 1.549 3.301 2.773.807 1.211 1.211 2.702 1.211 4.473 0 1.38-.3 2.63-.899 3.75a7.976 7.976 0 0 1-2.402 2.734 7.614 7.614 0 0 1-3.359 1.348l-.606.234H454.57l-.039-1.055h9.805c1.628 0 2.982-.338 4.062-1.015 1.081-.677 1.895-1.55 2.442-2.617a7.39 7.39 0 0 0 .82-3.379c0-1.498-.338-2.774-1.015-3.828-.678-1.068-1.641-1.889-2.891-2.461-1.237-.573-2.695-.86-4.375-.86h-8.008V187h-1.055v-28.438ZM472.793 187 465 174.461l1.23-.039 7.676 12.305V187h-1.113ZM340.859 226.441a3.42 3.42 0 0 0-.195-1.191c-.13-.365-.371-.703-.723-1.016-.351-.312-.859-.625-1.523-.937-.651-.326-1.51-.664-2.578-1.016a38.204 38.204 0 0 1-3.613-1.406 16.095 16.095 0 0 1-3.106-1.855 8.423 8.423 0 0 1-2.168-2.5c-.534-.964-.801-2.084-.801-3.36 0-1.224.274-2.324.821-3.301.547-.989 1.308-1.829 2.285-2.519.989-.703 2.148-1.237 3.476-1.602 1.328-.377 2.78-.566 4.356-.566 2.083 0 3.919.364 5.508 1.094 1.601.716 2.851 1.738 3.75 3.066.911 1.315 1.367 2.871 1.367 4.668h-6.817c0-.716-.149-1.348-.449-1.895-.286-.546-.722-.976-1.308-1.289-.586-.312-1.322-.468-2.207-.468-.86 0-1.582.13-2.168.39-.586.261-1.029.612-1.328 1.055-.3.43-.45.905-.45 1.426 0 .429.117.82.352 1.172.247.338.592.657 1.035.957.456.299 1.003.586 1.641.859.651.273 1.38.54 2.187.801 1.511.482 2.852 1.022 4.024 1.621 1.184.586 2.181 1.256 2.988 2.012.82.742 1.439 1.588 1.855 2.539.43.95.645 2.024.645 3.222 0 1.276-.248 2.409-.742 3.399a7.061 7.061 0 0 1-2.129 2.519c-.925.677-2.032 1.192-3.321 1.543-1.289.352-2.727.528-4.316.528-1.458 0-2.897-.183-4.316-.547a12.776 12.776 0 0 1-3.829-1.719 8.907 8.907 0 0 1-2.753-2.988c-.677-1.224-1.016-2.676-1.016-4.356h6.875c0 .834.111 1.537.332 2.11.221.573.547 1.035.977 1.386.429.339.957.586 1.582.743.625.143 1.341.214 2.148.214.872 0 1.576-.123 2.109-.371.534-.26.925-.599 1.172-1.015.248-.43.371-.899.371-1.407Zm29.961 2.286V234h-15.156v-5.273h15.156Zm-12.715-23.165V234h-6.855v-28.438h6.855Zm10.762 11.29v5.097h-13.203v-5.097h13.203Zm2.012-11.29v5.293h-15.215v-5.293h15.215Zm26.016 13.243v11.679c-.482.534-1.224 1.107-2.227 1.719-.99.599-2.24 1.113-3.75 1.543-1.51.43-3.288.645-5.332.645-1.888 0-3.6-.3-5.137-.899a10.963 10.963 0 0 1-3.965-2.676c-1.093-1.184-1.94-2.63-2.539-4.336-.586-1.718-.879-3.684-.879-5.898V219c0-2.214.3-4.18.899-5.898.599-1.719 1.439-3.164 2.519-4.336a10.861 10.861 0 0 1 3.848-2.696c1.484-.612 3.112-.918 4.883-.918 2.617 0 4.746.417 6.387 1.25 1.64.821 2.884 1.96 3.73 3.418.846 1.446 1.361 3.119 1.543 5.02h-6.582c-.13-.938-.378-1.732-.742-2.383a3.477 3.477 0 0 0-1.524-1.504c-.664-.351-1.523-.527-2.578-.527-.82 0-1.569.176-2.246.527-.664.352-1.23.886-1.699 1.602-.469.703-.833 1.588-1.094 2.656-.247 1.068-.371 2.318-.371 3.75v1.621c0 1.419.117 2.663.352 3.73.247 1.068.612 1.96 1.093 2.676a4.84 4.84 0 0 0 1.875 1.602c.769.351 1.674.527 2.715.527.729 0 1.354-.058 1.875-.176.521-.13.951-.286 1.289-.468.352-.196.619-.378.801-.547v-4.414h-4.766v-4.707h11.622Zm16.054-7.266L406.016 234h-7.364l10.45-28.438h4.668l-.821 5.977ZM418.691 234l-6.953-22.461-.898-5.977h4.726L426.074 234h-7.383Zm-.273-10.605v5.293h-14.59v-5.293h14.59Zm21.172-17.833V234h-6.856v-28.438h6.856Zm8.555 0v5.293h-23.77v-5.293h23.77Zm26.425 13.653v1.152c0 2.175-.306 4.128-.918 5.86-.599 1.718-1.451 3.19-2.558 4.414a11.345 11.345 0 0 1-3.926 2.793c-1.51.638-3.177.957-5 .957-1.836 0-3.516-.319-5.039-.957a11.521 11.521 0 0 1-3.945-2.793c-1.107-1.224-1.967-2.696-2.579-4.414-.598-1.732-.898-3.685-.898-5.86v-1.152c0-2.175.3-4.128.898-5.86.612-1.731 1.465-3.203 2.559-4.414a11.006 11.006 0 0 1 3.926-2.793c1.523-.651 3.203-.976 5.039-.976 1.823 0 3.489.325 5 .976a10.972 10.972 0 0 1 3.945 2.793c1.107 1.211 1.966 2.683 2.578 4.414.612 1.732.918 3.685.918 5.86Zm-6.953 1.152v-1.191c0-1.406-.124-2.643-.371-3.711-.234-1.081-.586-1.986-1.055-2.715-.468-.729-1.048-1.276-1.738-1.641-.677-.377-1.452-.566-2.324-.566-.912 0-1.706.189-2.383.566-.677.365-1.243.912-1.699 1.641-.456.729-.801 1.634-1.035 2.715-.222 1.068-.332 2.305-.332 3.711v1.191c0 1.393.11 2.63.332 3.711.234 1.068.579 1.973 1.035 2.715.469.742 1.042 1.302 1.719 1.68.69.377 1.491.566 2.402.566.872 0 1.647-.189 2.324-.566.677-.378 1.244-.938 1.699-1.68.469-.742.821-1.647 1.055-2.715.247-1.081.371-2.318.371-3.711Z" />
    </g>
</svg>