<svg xmlns="http://www.w3.org/2000/svg" fill="#181A1B" viewBox="0 0 850 300">
    <path
        d="M283.969 146.917a.783.783 0 0 1-1.563 0 .782.782 0 0 1 1.563 0Zm-2.344 2.344a.778.778 0 0 0 .781-.781.782.782 0 1 0-.781.781Zm3.906-.781a.778.778 0 0 1-.781.781.778.778 0 0 1-.781-.781.782.782 0 1 1 1.562 0Zm-2.343 2.343a.783.783 0 0 0 .781-.781.782.782 0 1 0-.781.781Zm-10.157-4.687h1.563v1.562h1.562v1.563h-1.562v1.562h-1.563v-1.562h-1.562v-1.563h1.562v-1.562Z" />
    <path
        d="M270.767 142.594a.799.799 0 0 1 .078-.594.778.778 0 0 1 .475-.364l3.019-.809a.78.78 0 0 1 .969.609 26.801 26.801 0 0 1 3.192-.183c1.125 0 2.255.064 3.313.197a.78.78 0 0 1 .972-.623l3.018.809a.792.792 0 0 1 .519.452.783.783 0 0 1-.041.687c.219.141.416.297.583.464.638.638 1.219 1.641 1.711 2.769.5 1.145.936 2.486 1.258 3.853.322 1.367.531 2.781.569 4.072.037 1.275-.092 2.503-.513 3.453a2.218 2.218 0 0 1-2.258 1.297c-.993-.105-1.742-.616-2.364-1.208-.382-.363-.775-.822-1.154-1.263a32.173 32.173 0 0 0-.575-.66c-1.138-1.257-2.496-2.386-5.038-2.386-2.542 0-3.9 1.129-5.037 2.386-.186.204-.378.429-.575.66-.38.441-.772.899-1.155 1.263-.622.594-1.37 1.103-2.364 1.208a2.22 2.22 0 0 1-2.258-1.297c-.422-.95-.55-2.18-.514-3.453.038-1.291.25-2.703.57-4.072.322-1.367.76-2.708 1.258-3.853.492-1.128 1.074-2.131 1.71-2.769.204-.2.431-.376.676-.523a.773.773 0 0 1-.044-.122Zm3.182.643c-1.371.29-2.296.693-2.708 1.107-.431.431-.917 1.223-1.383 2.289a21.494 21.494 0 0 0-1.169 3.586 19.301 19.301 0 0 0-.529 3.759c-.035 1.18.096 2.138.379 2.775a.653.653 0 0 0 .666.375c.511-.053.953-.311 1.451-.784.332-.316.625-.661.961-1.053.208-.244.432-.505.688-.788 1.29-1.426 3.036-2.898 6.195-2.898 3.16 0 4.905 1.472 6.195 2.898.257.283.48.544.688.788.334.392.63.737.961 1.053.497.473.939.731 1.451.786a.66.66 0 0 0 .666-.377c.281-.637.414-1.594.38-2.775a19.302 19.302 0 0 0-.53-3.759 21.494 21.494 0 0 0-1.169-3.586c-.465-1.066-.953-1.86-1.382-2.289-.413-.414-1.338-.817-2.708-1.107-1.328-.279-2.933-.421-4.552-.421-1.619 0-3.223.142-4.551.421Zm34.506 18.627a5.973 5.973 0 0 1-2.648-.591 4.798 4.798 0 0 1-1.943-1.728c-.485-.757-.728-1.681-.728-2.772 0-.591.095-1.144.284-1.659.19-.523.523-.997 1-1.421.478-.424 1.144-.788 2-1.091.864-.303 1.966-.534 3.307-.693a41.467 41.467 0 0 0 2.273-.318c.712-.121 1.292-.303 1.739-.546.447-.242.67-.59.67-1.045v-1.045c0-1.341-.451-2.417-1.352-3.228-.902-.818-2.102-1.227-3.602-1.227-1.228 0-2.3.273-3.216.818-.917.538-1.557 1.296-1.921 2.273l-.682-.273a4.906 4.906 0 0 1 1.262-1.886 5.927 5.927 0 0 1 2.022-1.227 7.267 7.267 0 0 1 2.535-.432c.886 0 1.678.132 2.375.397a5.116 5.116 0 0 1 1.795 1.091 4.63 4.63 0 0 1 1.125 1.637c.258.629.386 1.314.386 2.057V161.5h-.727v-3.545h-.091a7.23 7.23 0 0 1-1.42 2.068 6.255 6.255 0 0 1-2 1.363 6.179 6.179 0 0 1-2.443.478Zm0-.728a5.375 5.375 0 0 0 3.011-.886c.901-.598 1.617-1.428 2.148-2.489.53-1.068.795-2.306.795-3.716v-2.636c-.212.159-.47.299-.773.421a7.86 7.86 0 0 1-1.011.329c-.371.091-.777.171-1.216.239-.439.068-.909.132-1.409.193-1.561.182-2.788.458-3.682.829-.894.372-1.526.838-1.898 1.398-.371.561-.556 1.212-.556 1.955 0 1.318.439 2.375 1.318 3.17.886.796 1.977 1.193 3.273 1.193Zm12.948.364v-17.455h.728v2.773h.091c.409-.909 1.079-1.636 2.011-2.182.939-.545 2.011-.818 3.216-.818h.363v.727h-.363c-1.03 0-1.947.224-2.75.671a4.978 4.978 0 0 0-1.887 1.852c-.454.788-.681 1.69-.681 2.705V161.5h-.728Zm16.955-17.455v.728h-6.909v-.728h6.909Zm-4.364-4.181h.728v17.954c0 .682.151 1.269.454 1.762.303.484.705.859 1.205 1.125a3.48 3.48 0 0 0 2.216.329c.189-.038.382-.095.579-.17l.227.681c-.227.084-.45.148-.67.194a3.16 3.16 0 0 1-.739.079 4.18 4.18 0 0 1-1.988-.488 3.84 3.84 0 0 1-1.466-1.387c-.364-.598-.546-1.307-.546-2.125v-17.954Zm11.137 9.909V161.5h-.728v-23.273h.728v8.591h.091c.409-.909 1.079-1.636 2.011-2.182.939-.545 2.011-.818 3.216-.818 1.167 0 2.197.254 3.091.762a5.492 5.492 0 0 1 2.102 2.102c.508.894.761 1.924.761 3.091V161.5h-.727v-11.727c0-1.546-.485-2.803-1.454-3.773-.97-.97-2.228-1.455-3.773-1.455-1.03 0-1.947.224-2.75.671a4.978 4.978 0 0 0-1.887 1.852c-.454.788-.681 1.69-.681 2.705Zm28.733 6v-11.728h.727V161.5h-.727v-2.773h-.091c-.409.909-1.084 1.637-2.023 2.182-.932.546-2 .818-3.205.818-1.166 0-2.197-.254-3.09-.761a5.5 5.5 0 0 1-2.103-2.102c-.507-.894-.761-1.925-.761-3.091v-11.728h.727v11.728c0 1.545.485 2.803 1.455 3.772.969.97 2.227 1.455 3.772 1.455 1.031 0 1.944-.223 2.739-.67a4.868 4.868 0 0 0 1.886-1.853c.463-.788.694-1.689.694-2.704Zm6.914 5.727v-17.455h.728v2.773h.091c.409-.909 1.079-1.636 2.011-2.182.939-.545 2.011-.818 3.216-.818h.364v.727h-.364c-1.03 0-1.947.224-2.75.671a4.969 4.969 0 0 0-1.886 1.852c-.455.788-.682 1.69-.682 2.705V161.5h-.728Zm20.861-13.773-.727.182c-.235-.757-.564-1.386-.989-1.886a3.853 3.853 0 0 0-1.534-1.137c-.606-.257-1.31-.386-2.113-.386-1.394 0-2.523.356-3.387 1.068-.863.705-1.295 1.637-1.295 2.796 0 .916.291 1.685.875 2.306.591.622 1.481 1.08 2.67 1.375l2.727.682c1.281.318 2.25.856 2.91 1.614.666.757 1 1.674 1 2.75 0 .947-.25 1.78-.75 2.5-.493.72-1.175 1.28-2.046 1.682-.871.394-1.879.591-3.023.591-1.553 0-2.822-.379-3.806-1.137-.985-.757-1.625-1.833-1.921-3.227l.727-.182c.258 1.235.807 2.182 1.648 2.841.849.652 1.966.977 3.352.977 1.516 0 2.743-.371 3.682-1.113.94-.743 1.409-1.72 1.409-2.932 0-.902-.28-1.663-.841-2.284-.56-.621-1.401-1.072-2.522-1.352l-2.728-.682c-1.341-.334-2.359-.879-3.056-1.637-.69-.757-1.035-1.681-1.035-2.772 0-.917.228-1.716.682-2.398.462-.689 1.099-1.227 1.909-1.614.819-.386 1.758-.579 2.819-.579 1.348 0 2.473.333 3.375 1 .901.659 1.564 1.644 1.988 2.954Zm11.872 14.137c-1.522 0-2.856-.398-4-1.194-1.136-.795-2.019-1.875-2.647-3.238-.629-1.364-.944-2.902-.944-4.614 0-1.712.315-3.25.944-4.613.636-1.364 1.5-2.444 2.591-3.239 1.09-.796 2.322-1.193 3.693-1.193 1.015 0 1.954.216 2.818.647a7.033 7.033 0 0 1 2.273 1.796 8.492 8.492 0 0 1 1.5 2.648c.363.992.545 2.053.545 3.181v.728h-14v-.728h13.273c0-1.401-.288-2.67-.864-3.806-.576-1.144-1.348-2.053-2.318-2.728a5.528 5.528 0 0 0-3.227-1.011 5.358 5.358 0 0 0-3.25 1.068c-.97.712-1.746 1.682-2.33 2.909-.583 1.228-.89 2.614-.92 4.159v.091c0 1.523.265 2.925.795 4.205.538 1.273 1.318 2.291 2.341 3.057 1.023.765 2.265 1.147 3.727 1.147 1.076 0 1.978-.189 2.705-.568.735-.379 1.322-.814 1.761-1.307.447-.492.777-.913.989-1.261l.591.409c-.258.439-.644.928-1.159 1.466-.515.538-1.175 1.004-1.978 1.398-.803.394-1.772.591-2.909.591Zm17.833 6.545c-.978 0-1.879-.132-2.705-.398a5.829 5.829 0 0 1-2.136-1.17 4.72 4.72 0 0 1-1.341-1.932l.682-.273a4.174 4.174 0 0 0 1.182 1.694c.53.454 1.162.791 1.897 1.011a8.25 8.25 0 0 0 2.421.341c1.818 0 3.235-.481 4.25-1.443 1.015-.955 1.522-2.413 1.522-4.375v-4.728h-.09c-.303.97-.754 1.781-1.353 2.432a5.878 5.878 0 0 1-2.079 1.455 6.56 6.56 0 0 1-2.478.477c-1.363 0-2.549-.367-3.556-1.102-1.008-.735-1.788-1.754-2.341-3.057-.553-1.303-.83-2.811-.83-4.523 0-1.727.273-3.273.818-4.636.546-1.364 1.322-2.44 2.33-3.227 1.008-.788 2.201-1.182 3.579-1.182.94 0 1.796.193 2.569.579a5.862 5.862 0 0 1 2.011 1.637c.568.704 1.011 1.541 1.33 2.511h.09v-4.455h.728v17.819c0 1.431-.262 2.632-.784 3.602a5.115 5.115 0 0 1-2.239 2.204c-.97.493-2.129.739-3.477.739Zm-.228-7.636c1.213 0 2.266-.322 3.16-.966.901-.644 1.598-1.561 2.09-2.75.5-1.197.75-2.61.75-4.239 0-1.576-.242-2.988-.727-4.238-.485-1.258-1.178-2.25-2.079-2.978-.894-.735-1.959-1.102-3.194-1.102-1.234 0-2.303.367-3.204 1.102-.894.728-1.583 1.72-2.068 2.978-.485 1.25-.728 2.662-.728 4.238 0 1.576.243 2.962.728 4.159.492 1.19 1.185 2.121 2.079 2.796.902.666 1.966 1 3.193 1Zm17.37 1.091a5.976 5.976 0 0 1-2.648-.591 4.798 4.798 0 0 1-1.943-1.728c-.485-.757-.727-1.681-.727-2.772 0-.591.094-1.144.284-1.659.189-.523.522-.997 1-1.421.477-.424 1.144-.788 2-1.091.863-.303 1.966-.534 3.307-.693.803-.091 1.56-.197 2.272-.318.712-.121 1.292-.303 1.739-.546.447-.242.67-.59.67-1.045v-1.045c0-1.341-.45-2.417-1.352-3.228-.901-.818-2.102-1.227-3.602-1.227-1.227 0-2.299.273-3.216.818-.917.538-1.557 1.296-1.921 2.273l-.681-.273a4.892 4.892 0 0 1 1.261-1.886 5.922 5.922 0 0 1 2.023-1.227 7.261 7.261 0 0 1 2.534-.432c.886 0 1.678.132 2.375.397a5.116 5.116 0 0 1 1.795 1.091 4.604 4.604 0 0 1 1.125 1.637c.258.629.387 1.314.387 2.057V161.5h-.728v-3.545h-.091a7.23 7.23 0 0 1-1.42 2.068 6.244 6.244 0 0 1-2 1.363 6.175 6.175 0 0 1-2.443.478Zm0-.728c1.106 0 2.11-.295 3.011-.886.902-.598 1.618-1.428 2.148-2.489.53-1.068.795-2.306.795-3.716v-2.636a3.394 3.394 0 0 1-.772.421 7.93 7.93 0 0 1-1.012.329c-.371.091-.776.171-1.216.239-.439.068-.909.132-1.409.193-1.56.182-2.788.458-3.682.829-.894.372-1.526.838-1.897 1.398-.372.561-.557 1.212-.557 1.955 0 1.318.439 2.375 1.318 3.17.886.796 1.977 1.193 3.273 1.193Zm18.403-17.091v.728h-6.909v-.728h6.909Zm-4.363-4.181h.727v17.954c0 .682.151 1.269.454 1.762.303.484.705.859 1.205 1.125a3.48 3.48 0 0 0 2.216.329c.189-.038.382-.095.579-.17l.228.681a4.748 4.748 0 0 1-.671.194 3.151 3.151 0 0 1-.738.079 4.185 4.185 0 0 1-1.989-.488 3.84 3.84 0 0 1-1.466-1.387c-.364-.598-.545-1.307-.545-2.125v-17.954Zm16.028 22c-1.371 0-2.602-.394-3.693-1.182-1.091-.796-1.955-1.875-2.591-3.239-.629-1.371-.943-2.913-.943-4.625 0-1.72.314-3.261.943-4.625.636-1.363 1.5-2.439 2.591-3.227 1.091-.796 2.322-1.193 3.693-1.193s2.598.397 3.682 1.193c1.091.795 1.954 1.875 2.591 3.239.636 1.363.954 2.901.954 4.613 0 1.712-.318 3.254-.954 4.625-.629 1.364-1.489 2.443-2.58 3.239-1.091.788-2.322 1.182-3.693 1.182Zm0-.728a5.411 5.411 0 0 0 3.318-1.091c.985-.727 1.762-1.719 2.33-2.977.568-1.257.852-2.674.852-4.25s-.288-2.988-.864-4.238c-.568-1.258-1.341-2.25-2.318-2.978a5.377 5.377 0 0 0-3.318-1.102 5.41 5.41 0 0 0-3.318 1.102c-.977.728-1.754 1.72-2.33 2.978-.568 1.25-.852 2.662-.852 4.238 0 1.576.284 2.993.852 4.25.568 1.258 1.341 2.25 2.318 2.977a5.462 5.462 0 0 0 3.33 1.091Zm13.304.5a.792.792 0 0 1-.58-.238.79.79 0 0 1-.238-.58c0-.227.079-.42.238-.579a.793.793 0 0 1 .58-.239c.227 0 .42.08.58.239a.788.788 0 0 1 .238.579.814.814 0 0 1-.114.421.71.71 0 0 1-.295.284.762.762 0 0 1-.409.113Zm7.23-.136v-17.455h.727V161.5h-.727Zm.364-20.636a.7.7 0 0 1-.512-.216.7.7 0 0 1-.216-.512c0-.197.072-.367.216-.511a.7.7 0 0 1 .512-.216c.197 0 .367.072.511.216a.698.698 0 0 1 .216.511.7.7 0 0 1-.216.512.698.698 0 0 1-.511.216Zm12.093 3.181v.728h-6.909v-.728h6.909Zm-4.363-4.181h.727v17.954c0 .682.152 1.269.455 1.762.303.484.704.859 1.204 1.125a3.48 3.48 0 0 0 2.216.329c.189-.038.383-.095.58-.17l.227.681a4.71 4.71 0 0 1-.671.194 3.145 3.145 0 0 1-.738.079 4.188 4.188 0 0 1-1.989-.488 3.84 3.84 0 0 1-1.466-1.387c-.363-.598-.545-1.307-.545-2.125v-17.954Zm16.119 22c-1.409 0-2.667-.394-3.773-1.182-1.098-.796-1.965-1.875-2.602-3.239-.629-1.363-.943-2.905-.943-4.625 0-1.704.314-3.238.943-4.602.629-1.371 1.493-2.455 2.591-3.25 1.106-.796 2.367-1.193 3.784-1.193 1.046 0 2.004.227 2.875.682a6.137 6.137 0 0 1 2.205 1.886c.591.803.973 1.735 1.147 2.795h-.772c-.235-1.371-.86-2.484-1.875-3.341-1.008-.863-2.201-1.295-3.58-1.295a5.6 5.6 0 0 0-3.375 1.091c-.992.72-1.776 1.708-2.352 2.966-.576 1.25-.864 2.67-.864 4.261 0 1.546.277 2.947.83 4.205.56 1.257 1.337 2.257 2.329 3 .993.742 2.137 1.113 3.432 1.113a5.71 5.71 0 0 0 2.568-.579 5.326 5.326 0 0 0 1.943-1.659c.523-.712.853-1.542.989-2.489h.773c-.167 1.099-.546 2.057-1.136 2.875a6.177 6.177 0 0 1-2.216 1.909c-.887.447-1.86.671-2.921.671Zm12.142-12.091V161.5h-.727v-23.273h.727v8.591h.091c.409-.909 1.08-1.636 2.011-2.182.94-.545 2.012-.818 3.216-.818 1.167 0 2.197.254 3.091.762a5.494 5.494 0 0 1 2.103 2.102c.507.894.761 1.924.761 3.091V161.5h-.727v-11.727c0-1.546-.485-2.803-1.455-3.773-.97-.97-2.227-1.455-3.773-1.455-1.03 0-1.947.224-2.75.671a4.976 4.976 0 0 0-1.886 1.852c-.455.788-.682 1.69-.682 2.705Zm18.415 11.863a.792.792 0 0 1-.58-.238.79.79 0 0 1-.238-.58c0-.227.079-.42.238-.579a.793.793 0 0 1 .58-.239c.227 0 .42.08.58.239a.788.788 0 0 1 .238.579.814.814 0 0 1-.114.421.71.71 0 0 1-.295.284.762.762 0 0 1-.409.113Zm7.23-.136v-17.455h.727V161.5h-.727Zm.364-20.636a.7.7 0 0 1-.512-.216.7.7 0 0 1-.216-.512c0-.197.072-.367.216-.511a.7.7 0 0 1 .512-.216c.197 0 .367.072.511.216a.698.698 0 0 1 .216.511.7.7 0 0 1-.216.512.698.698 0 0 1-.511.216Zm12.821 21c-1.371 0-2.603-.394-3.693-1.182-1.091-.796-1.955-1.875-2.591-3.239-.629-1.371-.944-2.913-.944-4.625 0-1.72.315-3.261.944-4.625.636-1.363 1.5-2.439 2.591-3.227 1.09-.796 2.322-1.193 3.693-1.193s2.598.397 3.682 1.193c1.09.795 1.954 1.875 2.59 3.239.637 1.363.955 2.901.955 4.613 0 1.712-.318 3.254-.955 4.625-.628 1.364-1.488 2.443-2.579 3.239-1.091.788-2.322 1.182-3.693 1.182Zm0-.728a5.411 5.411 0 0 0 3.318-1.091c.985-.727 1.761-1.719 2.329-2.977.569-1.257.853-2.674.853-4.25s-.288-2.988-.864-4.238c-.568-1.258-1.341-2.25-2.318-2.978a5.377 5.377 0 0 0-3.318-1.102 5.406 5.406 0 0 0-3.318 1.102c-.978.728-1.754 1.72-2.33 2.978-.568 1.25-.852 2.662-.852 4.238 0 1.576.284 2.993.852 4.25.568 1.258 1.341 2.25 2.318 2.977a5.462 5.462 0 0 0 3.33 1.091Z" />
</svg>